G75*
G70*
%OFA0B0*%
%FSLAX24Y24*%
%IPPOS*%
%LPD*%
%AMOC8*
5,1,8,0,0,1.08239X$1,22.5*
%
%ADD10C,0.0000*%
%ADD11C,0.0080*%
%ADD12R,0.0110X0.0005*%
%ADD13R,0.0210X0.0005*%
%ADD14R,0.0280X0.0005*%
%ADD15R,0.0325X0.0005*%
%ADD16R,0.0365X0.0005*%
%ADD17R,0.0410X0.0005*%
%ADD18R,0.0440X0.0005*%
%ADD19R,0.0470X0.0005*%
%ADD20R,0.0505X0.0005*%
%ADD21R,0.0530X0.0005*%
%ADD22R,0.0555X0.0005*%
%ADD23R,0.0580X0.0005*%
%ADD24R,0.0600X0.0005*%
%ADD25R,0.0625X0.0005*%
%ADD26R,0.0645X0.0005*%
%ADD27R,0.0665X0.0005*%
%ADD28R,0.0685X0.0005*%
%ADD29R,0.0705X0.0005*%
%ADD30R,0.0715X0.0005*%
%ADD31R,0.0735X0.0005*%
%ADD32R,0.0755X0.0005*%
%ADD33R,0.0090X0.0005*%
%ADD34R,0.0770X0.0005*%
%ADD35R,0.0190X0.0005*%
%ADD36R,0.0355X0.0005*%
%ADD37R,0.0360X0.0005*%
%ADD38R,0.0260X0.0005*%
%ADD39R,0.0315X0.0005*%
%ADD40R,0.0320X0.0005*%
%ADD41R,0.0295X0.0005*%
%ADD42R,0.0275X0.0005*%
%ADD43R,0.0400X0.0005*%
%ADD44R,0.0265X0.0005*%
%ADD45R,0.0435X0.0005*%
%ADD46R,0.0255X0.0005*%
%ADD47R,0.0465X0.0005*%
%ADD48R,0.0245X0.0005*%
%ADD49R,0.0495X0.0005*%
%ADD50R,0.0235X0.0005*%
%ADD51R,0.0525X0.0005*%
%ADD52R,0.0230X0.0005*%
%ADD53R,0.0240X0.0005*%
%ADD54R,0.0545X0.0005*%
%ADD55R,0.0820X0.0005*%
%ADD56R,0.0220X0.0005*%
%ADD57R,0.0025X0.0005*%
%ADD58R,0.0795X0.0005*%
%ADD59R,0.0215X0.0005*%
%ADD60R,0.0035X0.0005*%
%ADD61R,0.0040X0.0005*%
%ADD62R,0.0800X0.0005*%
%ADD63R,0.0205X0.0005*%
%ADD64R,0.0050X0.0005*%
%ADD65R,0.0805X0.0005*%
%ADD66R,0.0165X0.0005*%
%ADD67R,0.0055X0.0005*%
%ADD68R,0.0200X0.0005*%
%ADD69R,0.0060X0.0005*%
%ADD70R,0.0300X0.0005*%
%ADD71R,0.0195X0.0005*%
%ADD72R,0.0065X0.0005*%
%ADD73R,0.0345X0.0005*%
%ADD74R,0.0070X0.0005*%
%ADD75R,0.0385X0.0005*%
%ADD76R,0.0080X0.0005*%
%ADD77R,0.0425X0.0005*%
%ADD78R,0.0185X0.0005*%
%ADD79R,0.0085X0.0005*%
%ADD80R,0.0635X0.0005*%
%ADD81R,0.0810X0.0005*%
%ADD82R,0.0095X0.0005*%
%ADD83R,0.0335X0.0005*%
%ADD84R,0.0655X0.0005*%
%ADD85R,0.0105X0.0005*%
%ADD86R,0.0290X0.0005*%
%ADD87R,0.0660X0.0005*%
%ADD88R,0.0115X0.0005*%
%ADD89R,0.0285X0.0005*%
%ADD90R,0.0120X0.0005*%
%ADD91R,0.0270X0.0005*%
%ADD92R,0.0675X0.0005*%
%ADD93R,0.0130X0.0005*%
%ADD94R,0.0680X0.0005*%
%ADD95R,0.0135X0.0005*%
%ADD96R,0.0250X0.0005*%
%ADD97R,0.0140X0.0005*%
%ADD98R,0.0180X0.0005*%
%ADD99R,0.0695X0.0005*%
%ADD100R,0.0150X0.0005*%
%ADD101R,0.0160X0.0005*%
%ADD102R,0.0155X0.0005*%
%ADD103R,0.0145X0.0005*%
%ADD104R,0.0700X0.0005*%
%ADD105R,0.0225X0.0005*%
%ADD106R,0.0170X0.0005*%
%ADD107R,0.0100X0.0005*%
%ADD108R,0.0075X0.0005*%
%ADD109R,0.0720X0.0005*%
%ADD110R,0.0725X0.0005*%
%ADD111R,0.0340X0.0005*%
%ADD112R,0.0305X0.0005*%
%ADD113R,0.0175X0.0005*%
%ADD114R,0.0005X0.0005*%
%ADD115R,0.0010X0.0005*%
%ADD116R,0.0015X0.0005*%
%ADD117R,0.0020X0.0005*%
%ADD118R,0.0030X0.0005*%
%ADD119R,0.0125X0.0005*%
%ADD120R,0.0045X0.0005*%
%ADD121R,0.0370X0.0005*%
%ADD122R,0.0375X0.0005*%
%ADD123R,0.0350X0.0005*%
%ADD124R,0.0330X0.0005*%
%ADD125R,0.0485X0.0005*%
%ADD126R,0.0480X0.0005*%
%ADD127R,0.0460X0.0005*%
%ADD128R,0.0445X0.0005*%
%ADD129R,0.0310X0.0005*%
%ADD130R,0.0380X0.0005*%
%ADD131R,0.0415X0.0005*%
%ADD132R,0.0450X0.0005*%
%ADD133R,0.0490X0.0005*%
%ADD134R,0.0965X0.0005*%
%ADD135R,0.0975X0.0005*%
%ADD136R,0.0980X0.0005*%
%ADD137R,0.0990X0.0005*%
%ADD138R,0.1005X0.0005*%
%ADD139R,0.0615X0.0005*%
%ADD140R,0.0640X0.0005*%
%ADD141R,0.0605X0.0005*%
%ADD142R,0.0620X0.0005*%
%ADD143R,0.0590X0.0005*%
%ADD144R,0.0570X0.0005*%
%ADD145R,0.0540X0.0005*%
%ADD146R,0.0515X0.0005*%
%ADD147R,0.0565X0.0005*%
%ADD148R,0.0535X0.0005*%
%ADD149R,0.0395X0.0005*%
%ADD150R,0.0520X0.0005*%
%ADD151R,0.0500X0.0005*%
%ADD152R,0.0430X0.0005*%
%ADD153C,0.0060*%
%ADD154C,0.0059*%
D10*
X001905Y000705D02*
X008655Y000705D01*
X008723Y000707D01*
X008790Y000712D01*
X008857Y000721D01*
X008924Y000734D01*
X008989Y000751D01*
X009054Y000770D01*
X009118Y000794D01*
X009180Y000821D01*
X009241Y000851D01*
X009299Y000884D01*
X009356Y000920D01*
X009411Y000960D01*
X009464Y001002D01*
X009515Y001048D01*
X009562Y001095D01*
X009608Y001146D01*
X009650Y001199D01*
X009690Y001254D01*
X009726Y001311D01*
X009759Y001369D01*
X009789Y001430D01*
X009816Y001492D01*
X009840Y001556D01*
X009859Y001621D01*
X009876Y001686D01*
X009889Y001753D01*
X009898Y001820D01*
X009903Y001887D01*
X009905Y001955D01*
X009905Y008705D01*
X009903Y008773D01*
X009898Y008840D01*
X009889Y008907D01*
X009876Y008974D01*
X009859Y009039D01*
X009840Y009104D01*
X009816Y009168D01*
X009789Y009230D01*
X009759Y009291D01*
X009726Y009349D01*
X009690Y009406D01*
X009650Y009461D01*
X009608Y009514D01*
X009562Y009565D01*
X009515Y009612D01*
X009464Y009658D01*
X009411Y009700D01*
X009356Y009740D01*
X009299Y009776D01*
X009241Y009809D01*
X009180Y009839D01*
X009118Y009866D01*
X009054Y009890D01*
X008989Y009909D01*
X008924Y009926D01*
X008857Y009939D01*
X008790Y009948D01*
X008723Y009953D01*
X008655Y009955D01*
X001905Y009955D01*
X001837Y009953D01*
X001770Y009948D01*
X001703Y009939D01*
X001636Y009926D01*
X001571Y009909D01*
X001506Y009890D01*
X001442Y009866D01*
X001380Y009839D01*
X001319Y009809D01*
X001261Y009776D01*
X001204Y009740D01*
X001149Y009700D01*
X001096Y009658D01*
X001045Y009612D01*
X000998Y009565D01*
X000952Y009514D01*
X000910Y009461D01*
X000870Y009406D01*
X000834Y009349D01*
X000801Y009291D01*
X000771Y009230D01*
X000744Y009168D01*
X000720Y009104D01*
X000701Y009039D01*
X000684Y008974D01*
X000671Y008907D01*
X000662Y008840D01*
X000657Y008773D01*
X000655Y008705D01*
X000655Y001955D01*
X000656Y001955D02*
X000654Y001889D01*
X000656Y001823D01*
X000662Y001757D01*
X000671Y001691D01*
X000684Y001626D01*
X000701Y001561D01*
X000721Y001498D01*
X000745Y001436D01*
X000772Y001376D01*
X000803Y001317D01*
X000837Y001259D01*
X000874Y001204D01*
X000914Y001151D01*
X000957Y001101D01*
X001002Y001052D01*
X001051Y001007D01*
X001101Y000964D01*
X001154Y000924D01*
X001209Y000887D01*
X001267Y000853D01*
X001326Y000822D01*
X001386Y000795D01*
X001448Y000771D01*
X001511Y000751D01*
X001576Y000734D01*
X001641Y000721D01*
X001707Y000712D01*
X001773Y000706D01*
X001839Y000704D01*
X001905Y000706D01*
X001280Y003205D02*
X001282Y003255D01*
X001288Y003304D01*
X001298Y003353D01*
X001311Y003400D01*
X001329Y003447D01*
X001350Y003492D01*
X001374Y003535D01*
X001402Y003576D01*
X001433Y003615D01*
X001467Y003651D01*
X001504Y003685D01*
X001544Y003715D01*
X001585Y003742D01*
X001629Y003766D01*
X001674Y003786D01*
X001721Y003802D01*
X001769Y003815D01*
X001818Y003824D01*
X001868Y003829D01*
X001917Y003830D01*
X001967Y003827D01*
X002016Y003820D01*
X002065Y003809D01*
X002112Y003795D01*
X002158Y003776D01*
X002203Y003754D01*
X002246Y003729D01*
X002286Y003700D01*
X002324Y003668D01*
X002360Y003634D01*
X002393Y003596D01*
X002422Y003556D01*
X002448Y003514D01*
X002471Y003470D01*
X002490Y003424D01*
X002506Y003377D01*
X002518Y003328D01*
X002526Y003279D01*
X002530Y003230D01*
X002530Y003180D01*
X002526Y003131D01*
X002518Y003082D01*
X002506Y003033D01*
X002490Y002986D01*
X002471Y002940D01*
X002448Y002896D01*
X002422Y002854D01*
X002393Y002814D01*
X002360Y002776D01*
X002324Y002742D01*
X002286Y002710D01*
X002246Y002681D01*
X002203Y002656D01*
X002158Y002634D01*
X002112Y002615D01*
X002065Y002601D01*
X002016Y002590D01*
X001967Y002583D01*
X001917Y002580D01*
X001868Y002581D01*
X001818Y002586D01*
X001769Y002595D01*
X001721Y002608D01*
X001674Y002624D01*
X001629Y002644D01*
X001585Y002668D01*
X001544Y002695D01*
X001504Y002725D01*
X001467Y002759D01*
X001433Y002795D01*
X001402Y002834D01*
X001374Y002875D01*
X001350Y002918D01*
X001329Y002963D01*
X001311Y003010D01*
X001298Y003057D01*
X001288Y003106D01*
X001282Y003155D01*
X001280Y003205D01*
X008030Y003205D02*
X008032Y003255D01*
X008038Y003304D01*
X008048Y003353D01*
X008061Y003400D01*
X008079Y003447D01*
X008100Y003492D01*
X008124Y003535D01*
X008152Y003576D01*
X008183Y003615D01*
X008217Y003651D01*
X008254Y003685D01*
X008294Y003715D01*
X008335Y003742D01*
X008379Y003766D01*
X008424Y003786D01*
X008471Y003802D01*
X008519Y003815D01*
X008568Y003824D01*
X008618Y003829D01*
X008667Y003830D01*
X008717Y003827D01*
X008766Y003820D01*
X008815Y003809D01*
X008862Y003795D01*
X008908Y003776D01*
X008953Y003754D01*
X008996Y003729D01*
X009036Y003700D01*
X009074Y003668D01*
X009110Y003634D01*
X009143Y003596D01*
X009172Y003556D01*
X009198Y003514D01*
X009221Y003470D01*
X009240Y003424D01*
X009256Y003377D01*
X009268Y003328D01*
X009276Y003279D01*
X009280Y003230D01*
X009280Y003180D01*
X009276Y003131D01*
X009268Y003082D01*
X009256Y003033D01*
X009240Y002986D01*
X009221Y002940D01*
X009198Y002896D01*
X009172Y002854D01*
X009143Y002814D01*
X009110Y002776D01*
X009074Y002742D01*
X009036Y002710D01*
X008996Y002681D01*
X008953Y002656D01*
X008908Y002634D01*
X008862Y002615D01*
X008815Y002601D01*
X008766Y002590D01*
X008717Y002583D01*
X008667Y002580D01*
X008618Y002581D01*
X008568Y002586D01*
X008519Y002595D01*
X008471Y002608D01*
X008424Y002624D01*
X008379Y002644D01*
X008335Y002668D01*
X008294Y002695D01*
X008254Y002725D01*
X008217Y002759D01*
X008183Y002795D01*
X008152Y002834D01*
X008124Y002875D01*
X008100Y002918D01*
X008079Y002963D01*
X008061Y003010D01*
X008048Y003057D01*
X008038Y003106D01*
X008032Y003155D01*
X008030Y003205D01*
D11*
X006865Y003995D02*
X006865Y004415D01*
X006655Y004415D01*
X006585Y004345D01*
X006585Y004275D01*
X006655Y004205D01*
X006865Y004205D01*
X006865Y003995D02*
X006655Y003995D01*
X006585Y004065D01*
X006585Y004135D01*
X006655Y004205D01*
X006405Y004135D02*
X006264Y004275D01*
X006194Y004275D01*
X006021Y004205D02*
X006021Y004065D01*
X005951Y003995D01*
X005811Y003995D01*
X005741Y004135D02*
X006021Y004135D01*
X006021Y004205D02*
X005951Y004275D01*
X005811Y004275D01*
X005741Y004205D01*
X005741Y004135D01*
X005561Y004065D02*
X005490Y004135D01*
X005280Y004135D01*
X005280Y004205D02*
X005280Y003995D01*
X005490Y003995D01*
X005561Y004065D01*
X005490Y004275D02*
X005350Y004275D01*
X005280Y004205D01*
X005100Y004135D02*
X004890Y004275D01*
X004717Y004205D02*
X004717Y004065D01*
X004646Y003995D01*
X004506Y003995D01*
X004436Y004065D01*
X004436Y004205D01*
X004506Y004275D01*
X004646Y004275D01*
X004717Y004205D01*
X004890Y003995D02*
X005100Y004135D01*
X005100Y003995D02*
X005100Y004415D01*
X004976Y004605D02*
X004906Y004605D01*
X004836Y004675D01*
X004836Y005025D01*
X004836Y004745D02*
X005046Y004745D01*
X005116Y004815D01*
X005116Y005025D01*
X005290Y005025D02*
X005360Y005025D01*
X005500Y004885D01*
X005500Y004745D02*
X005500Y005025D01*
X005680Y004955D02*
X005680Y004745D01*
X005890Y004745D01*
X005960Y004815D01*
X005890Y004885D01*
X005680Y004885D01*
X005680Y004955D02*
X005750Y005025D01*
X005890Y005025D01*
X006127Y005025D02*
X006267Y005025D01*
X006197Y005095D02*
X006197Y004815D01*
X006127Y004745D01*
X006447Y004815D02*
X006447Y004955D01*
X006517Y005025D01*
X006658Y005025D01*
X006728Y004955D01*
X006728Y004815D01*
X006658Y004745D01*
X006517Y004745D01*
X006447Y004815D01*
X006908Y004745D02*
X007048Y004885D01*
X006978Y004885D02*
X006908Y004955D01*
X006908Y005095D01*
X006978Y005165D01*
X007188Y005165D01*
X007188Y004745D01*
X007188Y004885D02*
X006978Y004885D01*
X006405Y004275D02*
X006405Y003995D01*
X007829Y004745D02*
X007829Y004955D01*
X007899Y005025D01*
X007969Y004955D01*
X007969Y004745D01*
X008109Y004745D02*
X008109Y005025D01*
X008039Y005025D01*
X007969Y004955D01*
X008289Y004955D02*
X008289Y004745D01*
X008429Y004745D02*
X008429Y004955D01*
X008359Y005025D01*
X008289Y004955D01*
X008429Y004955D02*
X008499Y005025D01*
X008569Y005025D01*
X008569Y004745D01*
X008749Y004745D02*
X009030Y004745D01*
X008749Y005025D01*
X008749Y005095D01*
X008819Y005165D01*
X008960Y005165D01*
X009030Y005095D01*
X009350Y005165D02*
X009350Y004745D01*
X009490Y004745D02*
X009210Y004745D01*
X009490Y005025D02*
X009350Y005165D01*
X007490Y007870D02*
X007490Y008290D01*
X007350Y008150D01*
X007210Y008290D01*
X007210Y007870D01*
X007030Y007940D02*
X006960Y008010D01*
X006749Y008010D01*
X006749Y008080D02*
X006749Y007870D01*
X006960Y007870D01*
X007030Y007940D01*
X006960Y008150D02*
X006819Y008150D01*
X006749Y008080D01*
X006569Y008080D02*
X006569Y007940D01*
X006499Y007870D01*
X006289Y007870D01*
X006289Y007800D02*
X006289Y008150D01*
X006499Y008150D01*
X006569Y008080D01*
X006289Y007800D02*
X006359Y007730D01*
X006429Y007730D01*
X006109Y007870D02*
X005969Y007870D01*
X006039Y007870D02*
X006039Y008150D01*
X006109Y008150D01*
X006039Y008290D02*
X006039Y008360D01*
X005802Y008080D02*
X005732Y008150D01*
X005522Y008150D01*
X005802Y008080D02*
X005802Y007940D01*
X005732Y007870D01*
X005522Y007870D01*
X005115Y007940D02*
X005045Y007870D01*
X004905Y007870D01*
X004835Y007940D01*
X004835Y008010D01*
X004905Y008080D01*
X005045Y008080D01*
X005115Y008150D01*
X005115Y008220D01*
X005045Y008290D01*
X004905Y008290D01*
X004835Y008220D01*
X004655Y008150D02*
X004585Y008150D01*
X004514Y008080D01*
X004444Y008150D01*
X004374Y008080D01*
X004374Y007870D01*
X004514Y007870D02*
X004514Y008080D01*
X004655Y008150D02*
X004655Y007870D01*
X004194Y007940D02*
X004124Y007870D01*
X003984Y007870D01*
X003914Y007940D01*
X003914Y008080D01*
X003984Y008150D01*
X004124Y008150D01*
X004194Y008080D01*
X004194Y007940D01*
X003734Y007870D02*
X003734Y008290D01*
X003524Y008150D02*
X003734Y008010D01*
X003524Y007870D01*
X003350Y007940D02*
X003350Y008080D01*
X003280Y008150D01*
X003140Y008150D01*
X003070Y008080D01*
X003070Y008010D01*
X003350Y008010D01*
X003350Y007940D02*
X003280Y007870D01*
X003140Y007870D01*
X002740Y008620D02*
X002740Y009040D01*
X002530Y009040D01*
X002460Y008970D01*
X002460Y008830D01*
X002530Y008760D01*
X002740Y008760D01*
X002600Y008760D02*
X002460Y008620D01*
X002280Y008620D02*
X001999Y008620D01*
X001819Y008690D02*
X001539Y008970D01*
X001539Y008690D01*
X001609Y008620D01*
X001749Y008620D01*
X001819Y008690D01*
X001819Y008970D01*
X001749Y009040D01*
X001609Y009040D01*
X001539Y008970D01*
X001359Y008900D02*
X001219Y009040D01*
X001219Y008620D01*
X001359Y008620D02*
X001079Y008620D01*
X001999Y009040D02*
X002280Y009040D01*
X002280Y008620D01*
X002280Y008830D02*
X002139Y008830D01*
X002074Y005165D02*
X002074Y004745D01*
X002284Y004745D01*
X002354Y004815D01*
X002354Y004955D01*
X002284Y005025D01*
X002074Y005025D01*
X001894Y004955D02*
X001894Y004815D01*
X001823Y004745D01*
X001683Y004745D01*
X001613Y004885D02*
X001894Y004885D01*
X001894Y004955D02*
X001823Y005025D01*
X001683Y005025D01*
X001613Y004955D01*
X001613Y004885D01*
X001433Y004885D02*
X001293Y005025D01*
X001223Y005025D01*
X001433Y005025D02*
X001433Y004745D01*
X002534Y004815D02*
X002534Y004955D01*
X002604Y005025D01*
X002744Y005025D01*
X002814Y004955D01*
X002814Y004815D01*
X002744Y004745D01*
X002604Y004745D01*
X002534Y004815D01*
X002994Y004745D02*
X003205Y004745D01*
X003275Y004815D01*
X003275Y004955D01*
X003205Y005025D01*
X002994Y005025D01*
X003455Y004955D02*
X003455Y004745D01*
X003455Y004955D02*
X003525Y005025D01*
X003735Y005025D01*
X003735Y004745D01*
X003915Y004745D02*
X004195Y004745D01*
X004195Y005165D01*
X003915Y005165D01*
X004055Y004955D02*
X004195Y004955D01*
X003726Y004345D02*
X003726Y004065D01*
X003656Y003995D01*
X003656Y004275D02*
X003796Y004275D01*
X003976Y004275D02*
X003976Y003995D01*
X004186Y003995D01*
X004256Y004065D01*
X004256Y004275D01*
X004240Y001415D02*
X004380Y001415D01*
X004450Y001345D01*
X004450Y001065D01*
X004380Y000995D01*
X004240Y000995D01*
X004170Y001065D01*
X004170Y001345D02*
X004240Y001415D01*
X003450Y001275D02*
X003450Y000995D01*
X003450Y001205D02*
X003170Y001205D01*
X003170Y001275D02*
X003170Y000995D01*
X003170Y001275D02*
X003310Y001415D01*
X003450Y001275D01*
X005170Y001275D02*
X005240Y001205D01*
X005450Y001205D01*
X005240Y001205D02*
X005170Y001135D01*
X005170Y001065D01*
X005240Y000995D01*
X005450Y000995D01*
X005450Y001415D01*
X005240Y001415D01*
X005170Y001345D01*
X005170Y001275D01*
X005920Y000995D02*
X006200Y000995D01*
X006060Y000995D02*
X006060Y001415D01*
X006200Y001275D01*
X006381Y001205D02*
X006451Y001135D01*
X006661Y001135D01*
X006661Y000995D02*
X006661Y001415D01*
X006451Y001415D01*
X006381Y001345D01*
X006381Y001205D01*
X006920Y001275D02*
X006920Y001345D01*
X006990Y001415D01*
X007130Y001415D01*
X007200Y001345D01*
X007381Y001345D02*
X007381Y001205D01*
X007451Y001135D01*
X007661Y001135D01*
X007661Y000995D02*
X007661Y001415D01*
X007451Y001415D01*
X007381Y001345D01*
X007200Y000995D02*
X006920Y000995D01*
X007200Y000995D02*
X006920Y001275D01*
D12*
X005236Y005621D03*
X005131Y005896D03*
X005146Y005906D03*
X005151Y005911D03*
X005156Y005916D03*
X005171Y005926D03*
X005216Y005956D03*
X005231Y005966D03*
X005236Y005971D03*
X005251Y005981D03*
X005266Y005991D03*
X005271Y005996D03*
X005281Y006001D03*
X005286Y006006D03*
X005291Y006011D03*
X005301Y006016D03*
X005306Y006021D03*
X005316Y006026D03*
X005321Y006031D03*
X005336Y006041D03*
X005116Y006271D03*
X004996Y006426D03*
X004996Y006431D03*
X004991Y006436D03*
X004991Y006441D03*
X005521Y006581D03*
X005521Y006586D03*
X005681Y006606D03*
X005681Y006611D03*
X005741Y006136D03*
X005711Y005941D03*
X005366Y007146D03*
X005366Y007151D03*
D13*
X005236Y007346D03*
X005646Y007541D03*
X006586Y007036D03*
X006586Y006496D03*
X006581Y006491D03*
X006326Y005971D03*
X005596Y005791D03*
X005236Y005626D03*
X004131Y005896D03*
X004046Y006926D03*
X004331Y007076D03*
D14*
X004296Y007056D03*
X004961Y005746D03*
X005236Y005631D03*
X006491Y007086D03*
X005646Y007536D03*
D15*
X005644Y007531D03*
X005224Y007376D03*
X004264Y005836D03*
X005234Y005636D03*
D16*
X005234Y005641D03*
X004239Y007011D03*
D17*
X005236Y005646D03*
X006331Y007141D03*
D18*
X006341Y007131D03*
X005236Y005651D03*
D19*
X005236Y005656D03*
X006351Y007116D03*
D20*
X005634Y007501D03*
X005234Y005661D03*
D21*
X005236Y005666D03*
D22*
X005234Y005671D03*
X005609Y007481D03*
D23*
X005591Y007466D03*
X005236Y005676D03*
D24*
X005236Y005681D03*
X005581Y007456D03*
D25*
X005234Y005686D03*
D26*
X005234Y005691D03*
X005879Y005836D03*
D27*
X005909Y005851D03*
X005234Y005696D03*
D28*
X005234Y005701D03*
X005934Y005866D03*
D29*
X005964Y005886D03*
X005234Y005706D03*
D30*
X005234Y005711D03*
X005969Y005891D03*
X005974Y005896D03*
D31*
X005234Y005716D03*
D32*
X005234Y005721D03*
D33*
X005051Y005831D03*
X005116Y006246D03*
X004981Y006476D03*
X004976Y006486D03*
X004976Y006491D03*
X005521Y006606D03*
X005686Y006581D03*
X005741Y006111D03*
X005706Y005946D03*
X004501Y005721D03*
X005361Y007176D03*
D34*
X005236Y005726D03*
D35*
X005316Y006056D03*
X004501Y005726D03*
X004026Y006381D03*
X004021Y006386D03*
X004016Y006396D03*
X004011Y006401D03*
X004006Y006406D03*
X004001Y006411D03*
X003996Y006886D03*
X004001Y006891D03*
X004006Y006896D03*
X004341Y007081D03*
X004466Y007301D03*
X004471Y007306D03*
X004476Y007311D03*
X006456Y006396D03*
X006616Y006521D03*
X006621Y006526D03*
X006621Y007006D03*
X006616Y007011D03*
X006371Y006006D03*
X006366Y006001D03*
D36*
X005449Y005731D03*
X004499Y005741D03*
X004254Y007021D03*
D37*
X004246Y007016D03*
X004196Y006986D03*
X005021Y005731D03*
X006311Y007161D03*
X006431Y007101D03*
X005431Y007436D03*
D38*
X005231Y007361D03*
X004586Y007381D03*
X004306Y007061D03*
X004201Y005856D03*
X004501Y005731D03*
X006256Y005931D03*
D39*
X005479Y005736D03*
X004989Y005736D03*
X005399Y007431D03*
D40*
X006456Y007096D03*
X004501Y005736D03*
X004166Y006981D03*
X004276Y007041D03*
D41*
X004289Y007051D03*
X004149Y006976D03*
X004974Y005741D03*
X005494Y005741D03*
X006474Y007091D03*
D42*
X006279Y007186D03*
X005309Y006081D03*
X005509Y005746D03*
X005764Y005911D03*
X006239Y005926D03*
D43*
X006326Y007146D03*
X004501Y005746D03*
D44*
X004764Y005846D03*
X004944Y005751D03*
X005299Y006071D03*
X005524Y005751D03*
X006504Y007081D03*
X004119Y006966D03*
D45*
X004499Y005751D03*
D46*
X004934Y005756D03*
X005299Y006066D03*
X005534Y005756D03*
X006264Y005936D03*
X006514Y007076D03*
X004109Y006961D03*
D47*
X004499Y005756D03*
X005659Y007516D03*
D48*
X006529Y006461D03*
X006494Y006436D03*
X006489Y006431D03*
X006274Y005941D03*
X005544Y005761D03*
X004924Y005761D03*
X004099Y006956D03*
X004564Y007371D03*
D49*
X004499Y005761D03*
D50*
X004914Y005766D03*
X005554Y005766D03*
X005959Y005806D03*
X006294Y005951D03*
X006479Y006421D03*
X006484Y006426D03*
X006544Y007061D03*
X004554Y007366D03*
X004079Y006946D03*
D51*
X004499Y005766D03*
D52*
X004171Y005871D03*
X004161Y005876D03*
X004071Y006941D03*
X004321Y007071D03*
X004546Y007361D03*
X005561Y005771D03*
X005571Y005776D03*
X006546Y006471D03*
X006556Y006476D03*
X006556Y007056D03*
D53*
X006536Y007066D03*
X006536Y006466D03*
X006286Y005946D03*
X005296Y006086D03*
X004906Y005771D03*
X004771Y005851D03*
X004181Y005866D03*
X004086Y006951D03*
X005231Y007356D03*
D54*
X005614Y007486D03*
X004499Y005771D03*
D55*
X004621Y005776D03*
D56*
X004146Y005886D03*
X004061Y006936D03*
X004531Y007351D03*
X004536Y007356D03*
X005581Y005781D03*
X006311Y005961D03*
X006571Y007046D03*
D57*
X005704Y006496D03*
X005704Y006491D03*
X005529Y006671D03*
X005129Y006146D03*
X005129Y006141D03*
X005024Y005781D03*
X005749Y006041D03*
X004929Y006641D03*
X004929Y006646D03*
X005349Y007261D03*
X005349Y007266D03*
D58*
X004599Y005781D03*
X004589Y005786D03*
D59*
X004779Y005856D03*
X005284Y006091D03*
X005589Y005786D03*
X006319Y005966D03*
X006469Y006411D03*
X006574Y006486D03*
X006579Y007041D03*
X004524Y007346D03*
X004054Y006931D03*
X004139Y005891D03*
D60*
X004939Y006611D03*
X004934Y006621D03*
X004934Y006626D03*
X005529Y006661D03*
X005529Y006666D03*
X005704Y006506D03*
X005704Y005956D03*
X005029Y005786D03*
X005354Y007246D03*
D61*
X005351Y007241D03*
X005526Y006656D03*
X005701Y006516D03*
X005701Y006511D03*
X005746Y006061D03*
X005746Y006056D03*
X005126Y006166D03*
X005126Y006171D03*
X005031Y005791D03*
X004801Y005901D03*
X004941Y006601D03*
X004941Y006606D03*
X004936Y006616D03*
D62*
X004551Y005806D03*
X004561Y005801D03*
X004581Y005791D03*
D63*
X004124Y005901D03*
X004119Y005906D03*
X004039Y006921D03*
X004509Y007336D03*
X004514Y007341D03*
X005609Y005801D03*
X005604Y005796D03*
X006334Y005976D03*
X006464Y006406D03*
X006594Y006501D03*
X006594Y007031D03*
D64*
X005696Y006531D03*
X005526Y006646D03*
X005356Y007226D03*
X004946Y006586D03*
X004946Y006581D03*
X005031Y005796D03*
X005746Y006066D03*
X005746Y006071D03*
X005746Y006076D03*
D65*
X004569Y005796D03*
X004544Y005811D03*
X004534Y005816D03*
X004529Y005821D03*
X004519Y005826D03*
D66*
X004039Y005986D03*
X004034Y005991D03*
X004034Y005996D03*
X004029Y006001D03*
X004024Y006326D03*
X004029Y006336D03*
X004034Y006341D03*
X004034Y006346D03*
X004039Y006356D03*
X004039Y006361D03*
X003939Y006481D03*
X003934Y006486D03*
X003929Y006496D03*
X003934Y006811D03*
X003939Y006821D03*
X003944Y006826D03*
X004354Y007086D03*
X004409Y007231D03*
X004414Y007236D03*
X004414Y007241D03*
X004419Y007246D03*
X004424Y007251D03*
X005084Y005881D03*
X005959Y005801D03*
X006424Y006066D03*
X006429Y006071D03*
X006429Y006076D03*
X006434Y006081D03*
X006439Y006091D03*
X006449Y006386D03*
X006674Y006581D03*
X006679Y006591D03*
X006684Y006596D03*
X006689Y006601D03*
X006694Y006611D03*
X006694Y006921D03*
X006689Y006931D03*
X006684Y006936D03*
X006679Y006941D03*
X006674Y006951D03*
D67*
X005839Y007376D03*
X005839Y007381D03*
X005844Y007406D03*
X005844Y007411D03*
X005834Y007351D03*
X005834Y007346D03*
X005829Y007321D03*
X005824Y007291D03*
X005819Y007261D03*
X005814Y007231D03*
X005864Y007531D03*
X005864Y007536D03*
X005354Y007221D03*
X005524Y006641D03*
X005699Y006536D03*
X005124Y006191D03*
X005124Y006186D03*
X005034Y005801D03*
X004954Y006561D03*
X004954Y006566D03*
X004949Y006571D03*
X004949Y006576D03*
D68*
X004501Y007331D03*
X004031Y006916D03*
X004026Y006911D03*
X004111Y005911D03*
X004781Y005861D03*
X005616Y005806D03*
X005736Y005921D03*
X006341Y005981D03*
X006346Y005986D03*
X006461Y006401D03*
X006601Y006506D03*
X006606Y006511D03*
X006606Y007021D03*
X006601Y007026D03*
X006246Y007201D03*
X005776Y007436D03*
D69*
X005841Y007401D03*
X005841Y007396D03*
X005841Y007391D03*
X005841Y007386D03*
X005836Y007371D03*
X005836Y007366D03*
X005836Y007361D03*
X005836Y007356D03*
X005831Y007341D03*
X005831Y007336D03*
X005831Y007331D03*
X005831Y007326D03*
X005826Y007316D03*
X005826Y007311D03*
X005826Y007306D03*
X005826Y007301D03*
X005826Y007296D03*
X005821Y007286D03*
X005821Y007281D03*
X005821Y007276D03*
X005821Y007271D03*
X005821Y007266D03*
X005816Y007256D03*
X005816Y007251D03*
X005816Y007246D03*
X005816Y007241D03*
X005816Y007236D03*
X005811Y007226D03*
X005811Y007221D03*
X005811Y007216D03*
X005811Y007211D03*
X005811Y007206D03*
X005806Y007201D03*
X005806Y007196D03*
X005806Y007191D03*
X005806Y007186D03*
X005806Y007181D03*
X005806Y007176D03*
X005801Y007171D03*
X005801Y007166D03*
X005801Y007161D03*
X005801Y007156D03*
X005801Y007151D03*
X005801Y007146D03*
X005796Y007141D03*
X005796Y007136D03*
X005796Y007131D03*
X005796Y007126D03*
X005796Y007121D03*
X005796Y007116D03*
X005791Y007106D03*
X005791Y007101D03*
X005791Y007096D03*
X005791Y007091D03*
X005791Y007086D03*
X005786Y007076D03*
X005786Y007071D03*
X005786Y007066D03*
X005786Y007061D03*
X005781Y007051D03*
X005781Y007046D03*
X005781Y007041D03*
X005781Y007036D03*
X005781Y007031D03*
X005776Y007021D03*
X005776Y007016D03*
X005776Y007011D03*
X005776Y007006D03*
X005776Y007001D03*
X005771Y006991D03*
X005771Y006986D03*
X005771Y006981D03*
X005771Y006976D03*
X005771Y006971D03*
X005766Y006961D03*
X005766Y006956D03*
X005766Y006951D03*
X005766Y006946D03*
X005761Y006936D03*
X005761Y006931D03*
X005761Y006926D03*
X005761Y006921D03*
X005761Y006916D03*
X005756Y006906D03*
X005756Y006901D03*
X005756Y006896D03*
X005756Y006891D03*
X005756Y006886D03*
X005751Y006876D03*
X005751Y006871D03*
X005751Y006866D03*
X005751Y006861D03*
X005751Y006856D03*
X005746Y006846D03*
X005746Y006841D03*
X005746Y006836D03*
X005746Y006831D03*
X005746Y006826D03*
X005741Y006816D03*
X005741Y006811D03*
X005741Y006806D03*
X005741Y006801D03*
X005736Y006791D03*
X005736Y006786D03*
X005736Y006781D03*
X005736Y006776D03*
X005736Y006771D03*
X005731Y006761D03*
X005731Y006756D03*
X005731Y006751D03*
X005731Y006746D03*
X005731Y006741D03*
X005726Y006731D03*
X005726Y006726D03*
X005726Y006721D03*
X005726Y006716D03*
X005726Y006711D03*
X005721Y006701D03*
X005721Y006696D03*
X005721Y006691D03*
X005721Y006686D03*
X005716Y006676D03*
X005716Y006671D03*
X005716Y006666D03*
X005716Y006661D03*
X005716Y006656D03*
X005696Y006541D03*
X005576Y006501D03*
X005586Y006476D03*
X005596Y006451D03*
X005566Y006526D03*
X005526Y006636D03*
X005241Y006711D03*
X005236Y006691D03*
X005231Y006671D03*
X005226Y006646D03*
X005221Y006626D03*
X005216Y006606D03*
X005211Y006581D03*
X005206Y006561D03*
X005201Y006541D03*
X005196Y006516D03*
X005191Y006496D03*
X005186Y006476D03*
X005181Y006451D03*
X005176Y006431D03*
X005171Y006411D03*
X005166Y006386D03*
X005161Y006371D03*
X005161Y006366D03*
X005156Y006356D03*
X005156Y006351D03*
X005156Y006346D03*
X005151Y006331D03*
X005151Y006326D03*
X005151Y006321D03*
X005146Y006311D03*
X005146Y006306D03*
X005121Y006201D03*
X005121Y006196D03*
X005001Y006161D03*
X005001Y006156D03*
X005001Y006151D03*
X005001Y006146D03*
X005006Y006136D03*
X005006Y006131D03*
X005006Y006126D03*
X005006Y006121D03*
X005006Y006116D03*
X005006Y006111D03*
X005006Y006106D03*
X005006Y006101D03*
X005006Y006096D03*
X005011Y006091D03*
X005011Y006086D03*
X005011Y006081D03*
X005011Y006076D03*
X005011Y006071D03*
X005011Y006066D03*
X005011Y006061D03*
X005011Y006056D03*
X005011Y006051D03*
X005011Y006046D03*
X005016Y006041D03*
X005016Y006036D03*
X005016Y006031D03*
X005016Y006026D03*
X005016Y006021D03*
X005016Y006016D03*
X005016Y006011D03*
X005016Y006006D03*
X005016Y006001D03*
X005016Y005996D03*
X005021Y005991D03*
X005021Y005986D03*
X005021Y005981D03*
X005021Y005976D03*
X005021Y005971D03*
X005021Y005966D03*
X005021Y005961D03*
X005021Y005956D03*
X005021Y005951D03*
X005021Y005946D03*
X005026Y005941D03*
X005026Y005936D03*
X005026Y005931D03*
X005026Y005926D03*
X005026Y005921D03*
X005026Y005916D03*
X005026Y005911D03*
X005026Y005906D03*
X005026Y005901D03*
X005026Y005896D03*
X005031Y005891D03*
X005036Y005806D03*
X004996Y006196D03*
X004996Y006201D03*
X004996Y006206D03*
X004991Y006246D03*
X004991Y006251D03*
X004986Y006276D03*
X004986Y006281D03*
X004986Y006286D03*
X004986Y006291D03*
X004986Y006296D03*
X004981Y006306D03*
X004981Y006311D03*
X004981Y006316D03*
X004981Y006321D03*
X004981Y006326D03*
X004981Y006331D03*
X004981Y006336D03*
X004981Y006341D03*
X004976Y006351D03*
X004976Y006356D03*
X004976Y006361D03*
X004976Y006366D03*
X004976Y006371D03*
X004976Y006376D03*
X004956Y006551D03*
X004956Y006556D03*
X005246Y006736D03*
X005251Y006756D03*
X005256Y006776D03*
X005261Y006801D03*
X005266Y006821D03*
X005271Y006841D03*
X005276Y006866D03*
X005281Y006886D03*
X005286Y006906D03*
X005291Y006931D03*
X005296Y006951D03*
X005301Y006971D03*
X005306Y006996D03*
X005311Y007016D03*
X005316Y007036D03*
X005321Y007056D03*
X005321Y007061D03*
X005326Y007081D03*
X005331Y007101D03*
X005356Y007211D03*
X005356Y007216D03*
X005866Y007541D03*
X005866Y007546D03*
X006136Y007081D03*
X006126Y007056D03*
X006121Y007041D03*
X006111Y007016D03*
X006101Y006991D03*
X006091Y006966D03*
X006081Y006941D03*
X006071Y006916D03*
X006046Y006851D03*
X006036Y006826D03*
X006026Y006801D03*
X006016Y006776D03*
X005981Y006686D03*
X005971Y006661D03*
X005961Y006636D03*
X005951Y006611D03*
X005926Y006546D03*
X005916Y006521D03*
X005906Y006496D03*
X005896Y006471D03*
X005871Y006406D03*
X005861Y006381D03*
X005851Y006356D03*
X005841Y006331D03*
X005816Y006266D03*
X005806Y006241D03*
X005796Y006216D03*
X005786Y006191D03*
X005746Y006086D03*
X005746Y006081D03*
D70*
X005961Y005811D03*
X005226Y007371D03*
X004881Y007501D03*
X004241Y005841D03*
D71*
X004104Y005916D03*
X004099Y005921D03*
X004094Y005926D03*
X004014Y006901D03*
X004019Y006906D03*
X004484Y007316D03*
X004489Y007321D03*
X004494Y007326D03*
X005634Y005821D03*
X005629Y005816D03*
X005624Y005811D03*
X006354Y005991D03*
X006359Y005996D03*
X006614Y006516D03*
X006609Y007016D03*
D72*
X006264Y007411D03*
X006269Y007421D03*
X006274Y007436D03*
X006279Y007446D03*
X006284Y007461D03*
X006289Y007471D03*
X006294Y007486D03*
X006299Y007496D03*
X006299Y007501D03*
X006304Y007511D03*
X006309Y007521D03*
X006309Y007526D03*
X006309Y007531D03*
X006314Y007536D03*
X006314Y007541D03*
X006319Y007546D03*
X006259Y007396D03*
X006254Y007386D03*
X006249Y007371D03*
X006244Y007361D03*
X006239Y007346D03*
X006229Y007321D03*
X006219Y007296D03*
X006214Y007281D03*
X006209Y007271D03*
X006204Y007256D03*
X006199Y007246D03*
X006194Y007231D03*
X006189Y007221D03*
X006189Y007216D03*
X006144Y007096D03*
X006139Y007091D03*
X006139Y007086D03*
X006134Y007076D03*
X006134Y007071D03*
X006129Y007066D03*
X006129Y007061D03*
X006124Y007051D03*
X006124Y007046D03*
X006119Y007036D03*
X006119Y007031D03*
X006114Y007026D03*
X006114Y007021D03*
X006109Y007011D03*
X006109Y007006D03*
X006104Y007001D03*
X006104Y006996D03*
X006099Y006986D03*
X006099Y006981D03*
X006094Y006976D03*
X006094Y006971D03*
X006089Y006961D03*
X006089Y006956D03*
X006084Y006951D03*
X006084Y006946D03*
X006079Y006936D03*
X006079Y006931D03*
X006074Y006926D03*
X006074Y006921D03*
X006069Y006911D03*
X006069Y006906D03*
X006064Y006901D03*
X006064Y006896D03*
X006064Y006891D03*
X006059Y006886D03*
X006059Y006881D03*
X006054Y006876D03*
X006054Y006871D03*
X006054Y006866D03*
X006049Y006861D03*
X006049Y006856D03*
X006044Y006846D03*
X006044Y006841D03*
X006039Y006836D03*
X006039Y006831D03*
X006034Y006821D03*
X006034Y006816D03*
X006029Y006811D03*
X006029Y006806D03*
X006024Y006796D03*
X006024Y006791D03*
X006019Y006786D03*
X006019Y006781D03*
X006014Y006771D03*
X006014Y006766D03*
X006009Y006761D03*
X006009Y006756D03*
X006009Y006751D03*
X006004Y006746D03*
X006004Y006741D03*
X005999Y006736D03*
X005999Y006731D03*
X005999Y006726D03*
X005994Y006721D03*
X005994Y006716D03*
X005989Y006711D03*
X005989Y006706D03*
X005989Y006701D03*
X005984Y006696D03*
X005984Y006691D03*
X005979Y006681D03*
X005979Y006676D03*
X005974Y006671D03*
X005974Y006666D03*
X005969Y006656D03*
X005969Y006651D03*
X005964Y006646D03*
X005964Y006641D03*
X005959Y006631D03*
X005959Y006626D03*
X005954Y006621D03*
X005954Y006616D03*
X005949Y006606D03*
X005949Y006601D03*
X005944Y006596D03*
X005944Y006591D03*
X005944Y006586D03*
X005939Y006581D03*
X005939Y006576D03*
X005934Y006571D03*
X005934Y006566D03*
X005934Y006561D03*
X005929Y006556D03*
X005929Y006551D03*
X005924Y006541D03*
X005924Y006536D03*
X005919Y006531D03*
X005919Y006526D03*
X005914Y006516D03*
X005914Y006511D03*
X005909Y006506D03*
X005909Y006501D03*
X005904Y006491D03*
X005904Y006486D03*
X005899Y006481D03*
X005899Y006476D03*
X005894Y006466D03*
X005894Y006461D03*
X005889Y006456D03*
X005889Y006451D03*
X005889Y006446D03*
X005884Y006441D03*
X005884Y006436D03*
X005879Y006431D03*
X005879Y006426D03*
X005879Y006421D03*
X005874Y006416D03*
X005874Y006411D03*
X005869Y006401D03*
X005869Y006396D03*
X005864Y006391D03*
X005864Y006386D03*
X005859Y006376D03*
X005859Y006371D03*
X005854Y006366D03*
X005854Y006361D03*
X005849Y006351D03*
X005849Y006346D03*
X005844Y006341D03*
X005844Y006336D03*
X005839Y006326D03*
X005839Y006321D03*
X005834Y006316D03*
X005834Y006311D03*
X005834Y006306D03*
X005829Y006301D03*
X005829Y006296D03*
X005824Y006291D03*
X005824Y006286D03*
X005824Y006281D03*
X005819Y006276D03*
X005819Y006271D03*
X005814Y006261D03*
X005814Y006256D03*
X005809Y006251D03*
X005809Y006246D03*
X005804Y006236D03*
X005804Y006231D03*
X005799Y006226D03*
X005799Y006221D03*
X005794Y006211D03*
X005794Y006206D03*
X005789Y006201D03*
X005789Y006196D03*
X005784Y006186D03*
X005784Y006181D03*
X005779Y006176D03*
X005699Y006196D03*
X005689Y006221D03*
X005684Y006231D03*
X005679Y006246D03*
X005674Y006256D03*
X005669Y006266D03*
X005669Y006271D03*
X005664Y006281D03*
X005659Y006291D03*
X005659Y006296D03*
X005654Y006306D03*
X005649Y006316D03*
X005649Y006321D03*
X005644Y006331D03*
X005639Y006341D03*
X005634Y006351D03*
X005634Y006356D03*
X005629Y006366D03*
X005624Y006376D03*
X005624Y006381D03*
X005619Y006391D03*
X005614Y006401D03*
X005614Y006406D03*
X005614Y006411D03*
X005609Y006416D03*
X005609Y006421D03*
X005604Y006426D03*
X005604Y006431D03*
X005604Y006436D03*
X005599Y006441D03*
X005599Y006446D03*
X005594Y006456D03*
X005594Y006461D03*
X005589Y006466D03*
X005589Y006471D03*
X005584Y006481D03*
X005584Y006486D03*
X005579Y006491D03*
X005579Y006496D03*
X005574Y006506D03*
X005574Y006511D03*
X005569Y006516D03*
X005569Y006521D03*
X005564Y006531D03*
X005564Y006536D03*
X005559Y006541D03*
X005559Y006546D03*
X005559Y006551D03*
X005524Y006631D03*
X005574Y006781D03*
X005569Y006791D03*
X005564Y006801D03*
X005559Y006811D03*
X005554Y006821D03*
X005549Y006831D03*
X005544Y006841D03*
X005539Y006851D03*
X005534Y006861D03*
X005529Y006871D03*
X005524Y006876D03*
X005524Y006881D03*
X005519Y006886D03*
X005519Y006891D03*
X005514Y006896D03*
X005514Y006901D03*
X005509Y006906D03*
X005509Y006911D03*
X005504Y006916D03*
X005499Y006926D03*
X005494Y006936D03*
X005489Y006946D03*
X005484Y006956D03*
X005479Y006966D03*
X005474Y006976D03*
X005469Y006986D03*
X005464Y006996D03*
X005459Y007006D03*
X005454Y007016D03*
X005449Y007026D03*
X005444Y007036D03*
X005439Y007046D03*
X005434Y007056D03*
X005429Y007066D03*
X005424Y007076D03*
X005419Y007086D03*
X005414Y007096D03*
X005409Y007106D03*
X005404Y007116D03*
X005334Y007116D03*
X005334Y007111D03*
X005334Y007106D03*
X005329Y007096D03*
X005329Y007091D03*
X005329Y007086D03*
X005324Y007076D03*
X005324Y007071D03*
X005324Y007066D03*
X005319Y007051D03*
X005319Y007046D03*
X005319Y007041D03*
X005314Y007031D03*
X005314Y007026D03*
X005314Y007021D03*
X005309Y007011D03*
X005309Y007006D03*
X005309Y007001D03*
X005304Y006991D03*
X005304Y006986D03*
X005304Y006981D03*
X005304Y006976D03*
X005299Y006966D03*
X005299Y006961D03*
X005299Y006956D03*
X005294Y006946D03*
X005294Y006941D03*
X005294Y006936D03*
X005289Y006926D03*
X005289Y006921D03*
X005289Y006916D03*
X005289Y006911D03*
X005284Y006901D03*
X005284Y006896D03*
X005284Y006891D03*
X005279Y006881D03*
X005279Y006876D03*
X005279Y006871D03*
X005274Y006861D03*
X005274Y006856D03*
X005274Y006851D03*
X005274Y006846D03*
X005269Y006836D03*
X005269Y006831D03*
X005269Y006826D03*
X005264Y006816D03*
X005264Y006811D03*
X005264Y006806D03*
X005259Y006796D03*
X005259Y006791D03*
X005259Y006786D03*
X005259Y006781D03*
X005254Y006771D03*
X005254Y006766D03*
X005254Y006761D03*
X005249Y006751D03*
X005249Y006746D03*
X005249Y006741D03*
X005244Y006731D03*
X005244Y006726D03*
X005244Y006721D03*
X005244Y006716D03*
X005239Y006706D03*
X005239Y006701D03*
X005239Y006696D03*
X005234Y006686D03*
X005234Y006681D03*
X005234Y006676D03*
X005229Y006666D03*
X005229Y006661D03*
X005229Y006656D03*
X005229Y006651D03*
X005224Y006641D03*
X005224Y006636D03*
X005224Y006631D03*
X005219Y006621D03*
X005219Y006616D03*
X005219Y006611D03*
X005214Y006601D03*
X005214Y006596D03*
X005214Y006591D03*
X005214Y006586D03*
X005209Y006576D03*
X005209Y006571D03*
X005209Y006566D03*
X005204Y006556D03*
X005204Y006551D03*
X005204Y006546D03*
X005199Y006536D03*
X005199Y006531D03*
X005199Y006526D03*
X005199Y006521D03*
X005194Y006511D03*
X005194Y006506D03*
X005194Y006501D03*
X005189Y006491D03*
X005189Y006486D03*
X005189Y006481D03*
X005184Y006471D03*
X005184Y006466D03*
X005184Y006461D03*
X005184Y006456D03*
X005179Y006446D03*
X005179Y006441D03*
X005179Y006436D03*
X005174Y006426D03*
X005174Y006421D03*
X005174Y006416D03*
X005169Y006406D03*
X005169Y006401D03*
X005169Y006396D03*
X005169Y006391D03*
X005164Y006381D03*
X005164Y006376D03*
X005159Y006361D03*
X005154Y006341D03*
X005154Y006336D03*
X005149Y006316D03*
X005079Y006306D03*
X005074Y006316D03*
X005069Y006326D03*
X005064Y006336D03*
X005059Y006346D03*
X005054Y006356D03*
X005049Y006366D03*
X005044Y006376D03*
X004979Y006346D03*
X004984Y006301D03*
X004989Y006271D03*
X004989Y006266D03*
X004989Y006261D03*
X004989Y006256D03*
X004994Y006241D03*
X004994Y006236D03*
X004994Y006231D03*
X004994Y006226D03*
X004994Y006221D03*
X004994Y006216D03*
X004994Y006211D03*
X004999Y006191D03*
X004999Y006186D03*
X004999Y006181D03*
X004999Y006176D03*
X004999Y006171D03*
X004999Y006166D03*
X005004Y006141D03*
X005124Y006206D03*
X004959Y006541D03*
X004959Y006546D03*
X005039Y005811D03*
X005709Y005951D03*
X005694Y006546D03*
X005714Y006651D03*
X005719Y006681D03*
X005724Y006706D03*
X005729Y006736D03*
X005734Y006766D03*
X005739Y006796D03*
X005744Y006821D03*
X005749Y006851D03*
X005754Y006881D03*
X005759Y006911D03*
X005764Y006941D03*
X005769Y006966D03*
X005774Y006996D03*
X005779Y007026D03*
X005784Y007056D03*
X005789Y007081D03*
X005794Y007111D03*
X005359Y007201D03*
X005359Y007206D03*
X005244Y007301D03*
D73*
X005959Y005816D03*
D74*
X005746Y006091D03*
X005746Y006096D03*
X005706Y006176D03*
X005706Y006181D03*
X005701Y006186D03*
X005701Y006191D03*
X005696Y006201D03*
X005696Y006206D03*
X005691Y006211D03*
X005691Y006216D03*
X005686Y006226D03*
X005681Y006236D03*
X005681Y006241D03*
X005676Y006251D03*
X005671Y006261D03*
X005666Y006276D03*
X005661Y006286D03*
X005656Y006301D03*
X005651Y006311D03*
X005646Y006326D03*
X005641Y006336D03*
X005636Y006346D03*
X005631Y006361D03*
X005626Y006371D03*
X005621Y006386D03*
X005616Y006396D03*
X005691Y006551D03*
X005691Y006556D03*
X005641Y006651D03*
X005636Y006661D03*
X005631Y006671D03*
X005626Y006676D03*
X005626Y006681D03*
X005621Y006686D03*
X005621Y006691D03*
X005616Y006696D03*
X005616Y006701D03*
X005611Y006706D03*
X005611Y006711D03*
X005606Y006716D03*
X005606Y006721D03*
X005601Y006726D03*
X005601Y006731D03*
X005596Y006736D03*
X005596Y006741D03*
X005591Y006746D03*
X005591Y006751D03*
X005586Y006756D03*
X005586Y006761D03*
X005581Y006766D03*
X005581Y006771D03*
X005576Y006776D03*
X005571Y006786D03*
X005566Y006796D03*
X005561Y006806D03*
X005556Y006816D03*
X005551Y006826D03*
X005546Y006836D03*
X005541Y006846D03*
X005536Y006856D03*
X005531Y006866D03*
X005501Y006921D03*
X005496Y006931D03*
X005491Y006941D03*
X005486Y006951D03*
X005481Y006961D03*
X005476Y006971D03*
X005471Y006981D03*
X005466Y006991D03*
X005461Y007001D03*
X005456Y007011D03*
X005451Y007021D03*
X005446Y007031D03*
X005441Y007041D03*
X005436Y007051D03*
X005431Y007061D03*
X005426Y007071D03*
X005421Y007081D03*
X005416Y007091D03*
X005411Y007101D03*
X005406Y007111D03*
X005526Y006626D03*
X005461Y006511D03*
X005446Y006486D03*
X005431Y006461D03*
X005426Y006451D03*
X005416Y006436D03*
X005411Y006426D03*
X005406Y006416D03*
X005401Y006411D03*
X005396Y006401D03*
X005391Y006391D03*
X005386Y006386D03*
X005381Y006376D03*
X005376Y006366D03*
X005371Y006356D03*
X005366Y006351D03*
X005366Y006346D03*
X005361Y006341D03*
X005361Y006336D03*
X005356Y006331D03*
X005351Y006326D03*
X005351Y006321D03*
X005346Y006316D03*
X005346Y006311D03*
X005341Y006306D03*
X005336Y006301D03*
X005336Y006296D03*
X005331Y006291D03*
X005331Y006286D03*
X005326Y006281D03*
X005321Y006276D03*
X005321Y006271D03*
X005316Y006266D03*
X005316Y006261D03*
X005311Y006256D03*
X005306Y006251D03*
X005306Y006246D03*
X005301Y006241D03*
X005301Y006236D03*
X005296Y006231D03*
X005291Y006226D03*
X005291Y006221D03*
X005286Y006216D03*
X005286Y006211D03*
X005281Y006206D03*
X005276Y006201D03*
X005276Y006196D03*
X005271Y006191D03*
X005271Y006186D03*
X005266Y006181D03*
X005261Y006176D03*
X005261Y006171D03*
X005256Y006166D03*
X005256Y006161D03*
X005251Y006156D03*
X005246Y006151D03*
X005246Y006146D03*
X005241Y006141D03*
X005241Y006136D03*
X005236Y006131D03*
X005231Y006126D03*
X005231Y006121D03*
X005226Y006116D03*
X005121Y006211D03*
X005121Y006216D03*
X005076Y006311D03*
X005071Y006321D03*
X005066Y006331D03*
X005061Y006341D03*
X005056Y006351D03*
X005051Y006361D03*
X005046Y006371D03*
X004961Y006536D03*
X005041Y005816D03*
X006191Y007226D03*
X006196Y007236D03*
X006196Y007241D03*
X006201Y007251D03*
X006206Y007261D03*
X006206Y007266D03*
X006211Y007276D03*
X006216Y007286D03*
X006216Y007291D03*
X006221Y007301D03*
X006221Y007306D03*
X006226Y007311D03*
X006226Y007316D03*
X006231Y007326D03*
X006231Y007331D03*
X006236Y007336D03*
X006236Y007341D03*
X006241Y007351D03*
X006241Y007356D03*
X006246Y007366D03*
X006251Y007376D03*
X006251Y007381D03*
X006256Y007391D03*
X006261Y007401D03*
X006261Y007406D03*
X006266Y007416D03*
X006271Y007426D03*
X006271Y007431D03*
X006276Y007441D03*
X006281Y007451D03*
X006281Y007456D03*
X006286Y007466D03*
X006291Y007476D03*
X006291Y007481D03*
X006296Y007491D03*
X006301Y007506D03*
X006306Y007516D03*
D75*
X006324Y007151D03*
X005959Y005821D03*
D76*
X005746Y006106D03*
X005691Y006561D03*
X005691Y006566D03*
X005231Y006111D03*
X005046Y005821D03*
X004971Y006506D03*
X004971Y006511D03*
X005361Y007186D03*
X005361Y007191D03*
D77*
X004879Y007486D03*
X006334Y007136D03*
X005959Y005826D03*
D78*
X005639Y005826D03*
X006374Y006011D03*
X006379Y006016D03*
X006629Y006531D03*
X006634Y006536D03*
X006639Y006541D03*
X006639Y006991D03*
X006634Y006996D03*
X006629Y007001D03*
X005239Y007341D03*
X003989Y006881D03*
X003984Y006876D03*
X003979Y006431D03*
X003984Y006426D03*
X003989Y006421D03*
X003994Y006416D03*
X004019Y006391D03*
X004029Y006376D03*
X004079Y005941D03*
X004084Y005936D03*
X004089Y005931D03*
D79*
X004974Y006496D03*
X004974Y006501D03*
X005119Y006241D03*
X005119Y006236D03*
X005119Y006231D03*
X005049Y005826D03*
X005524Y006611D03*
X005689Y006576D03*
X005689Y006571D03*
X005364Y007181D03*
X005244Y007306D03*
D80*
X005869Y005831D03*
D81*
X004511Y005831D03*
D82*
X005054Y005836D03*
X005119Y006251D03*
X004984Y006466D03*
X004984Y006471D03*
X004979Y006481D03*
X005524Y006601D03*
X005684Y006586D03*
X005744Y006116D03*
X005364Y007166D03*
X005364Y007171D03*
X005829Y007421D03*
D83*
X004264Y007031D03*
X004744Y005836D03*
D84*
X005894Y005841D03*
D85*
X005744Y006131D03*
X005684Y006596D03*
X005684Y006601D03*
X005364Y007156D03*
X005364Y007161D03*
X005644Y007546D03*
X006204Y007211D03*
X005114Y006266D03*
X004989Y006446D03*
X004989Y006451D03*
X005259Y005986D03*
X005244Y005976D03*
X005224Y005961D03*
X005209Y005951D03*
X005204Y005946D03*
X005194Y005941D03*
X005139Y005901D03*
X005124Y005891D03*
X005059Y005841D03*
D86*
X004756Y005841D03*
X006226Y005921D03*
X006286Y007181D03*
D87*
X005901Y005846D03*
X004881Y007441D03*
D88*
X005679Y006616D03*
X005744Y006141D03*
X005329Y006036D03*
X005244Y006106D03*
X005184Y005936D03*
X005179Y005931D03*
X005164Y005921D03*
X005059Y005846D03*
X004799Y005886D03*
X005114Y006276D03*
X005114Y006281D03*
X005114Y006286D03*
X004999Y006416D03*
X004999Y006421D03*
D89*
X004229Y005846D03*
X004134Y006971D03*
X004614Y007391D03*
X005229Y007366D03*
D90*
X005241Y007316D03*
X005366Y007141D03*
X005366Y007136D03*
X005816Y007426D03*
X005681Y006621D03*
X005521Y006576D03*
X005741Y006151D03*
X005741Y006146D03*
X005336Y006046D03*
X005111Y006291D03*
X005001Y006406D03*
X005001Y006411D03*
X005061Y005851D03*
D91*
X005306Y006076D03*
X004216Y005851D03*
X004596Y007386D03*
D92*
X005919Y005856D03*
D93*
X005716Y005936D03*
X005741Y006161D03*
X005676Y006636D03*
X005676Y006641D03*
X005371Y007121D03*
X005241Y007321D03*
X005006Y006391D03*
X005011Y006381D03*
X005111Y006301D03*
X005066Y005856D03*
X004796Y005881D03*
D94*
X005926Y005861D03*
X004881Y007436D03*
D95*
X005674Y006646D03*
X005519Y006561D03*
X005519Y006556D03*
X005744Y006166D03*
X005069Y005861D03*
D96*
X004191Y005861D03*
X004311Y007066D03*
X004576Y007376D03*
X004881Y007506D03*
X006271Y007191D03*
X006526Y007071D03*
X006521Y006456D03*
X006511Y006451D03*
X006506Y006446D03*
X006501Y006441D03*
D97*
X005741Y006171D03*
X005071Y005866D03*
D98*
X004786Y005866D03*
X005271Y006096D03*
X005726Y005926D03*
X006386Y006021D03*
X006391Y006026D03*
X006396Y006031D03*
X006641Y006986D03*
X004881Y007511D03*
X004461Y007296D03*
X004456Y007291D03*
X004451Y007286D03*
X004446Y007281D03*
X003981Y006871D03*
X003976Y006866D03*
X003971Y006861D03*
X003976Y006436D03*
X004031Y006371D03*
X004071Y005946D03*
D99*
X005944Y005871D03*
X005949Y005876D03*
D100*
X005721Y005931D03*
X005076Y005871D03*
X003996Y006066D03*
X003991Y006076D03*
X003991Y006081D03*
X003991Y006086D03*
X003986Y006096D03*
X003986Y006101D03*
X003986Y006106D03*
X003981Y006116D03*
X003981Y006121D03*
X003981Y006126D03*
X003981Y006131D03*
X003981Y006136D03*
X003976Y006176D03*
X003976Y006181D03*
X003976Y006186D03*
X003981Y006206D03*
X003981Y006211D03*
X003981Y006216D03*
X003981Y006221D03*
X003981Y006226D03*
X003986Y006231D03*
X003986Y006236D03*
X003986Y006241D03*
X003986Y006246D03*
X003991Y006251D03*
X003991Y006256D03*
X003996Y006271D03*
X003906Y006541D03*
X003901Y006556D03*
X003896Y006566D03*
X003896Y006571D03*
X003896Y006576D03*
X003891Y006586D03*
X003891Y006591D03*
X003891Y006596D03*
X003891Y006601D03*
X003886Y006616D03*
X003886Y006621D03*
X003886Y006626D03*
X003886Y006631D03*
X003886Y006636D03*
X003886Y006641D03*
X003886Y006646D03*
X003886Y006651D03*
X003886Y006656D03*
X003886Y006661D03*
X003886Y006666D03*
X003886Y006671D03*
X003886Y006676D03*
X003886Y006681D03*
X003891Y006701D03*
X003891Y006706D03*
X003891Y006711D03*
X003891Y006716D03*
X003896Y006721D03*
X003896Y006726D03*
X003896Y006731D03*
X003901Y006741D03*
X003901Y006746D03*
X004361Y007091D03*
X004361Y007096D03*
X004361Y007101D03*
X004366Y007116D03*
X004366Y007121D03*
X004366Y007126D03*
X004366Y007131D03*
X004371Y007141D03*
X004371Y007146D03*
X004371Y007151D03*
X004376Y007161D03*
X004381Y007176D03*
X006466Y006341D03*
X006471Y006331D03*
X006471Y006326D03*
X006471Y006321D03*
X006476Y006311D03*
X006476Y006306D03*
X006476Y006301D03*
X006476Y006296D03*
X006481Y006286D03*
X006481Y006281D03*
X006481Y006276D03*
X006481Y006271D03*
X006481Y006266D03*
X006481Y006261D03*
X006481Y006256D03*
X006481Y006251D03*
X006481Y006246D03*
X006481Y006241D03*
X006481Y006236D03*
X006481Y006231D03*
X006481Y006226D03*
X006481Y006221D03*
X006481Y006216D03*
X006481Y006211D03*
X006481Y006206D03*
X006476Y006191D03*
X006476Y006186D03*
X006476Y006181D03*
X006476Y006176D03*
X006471Y006171D03*
X006471Y006166D03*
X006471Y006161D03*
X006466Y006151D03*
X006721Y006671D03*
X006726Y006686D03*
X006726Y006691D03*
X006726Y006696D03*
X006731Y006701D03*
X006731Y006706D03*
X006731Y006711D03*
X006731Y006716D03*
X006736Y006726D03*
X006736Y006731D03*
X006736Y006736D03*
X006736Y006741D03*
X006736Y006746D03*
X006736Y006751D03*
X006736Y006756D03*
X006736Y006761D03*
X006736Y006766D03*
X006736Y006771D03*
X006736Y006776D03*
X006736Y006781D03*
X006736Y006786D03*
X006736Y006791D03*
X006736Y006796D03*
X006736Y006801D03*
X006731Y006816D03*
X006731Y006821D03*
X006731Y006826D03*
X006731Y006831D03*
X006726Y006836D03*
X006726Y006841D03*
X006726Y006846D03*
X006721Y006856D03*
X006721Y006861D03*
D101*
X006711Y006886D03*
X006706Y006896D03*
X006701Y006906D03*
X006696Y006916D03*
X006691Y006926D03*
X006711Y006646D03*
X006706Y006636D03*
X006701Y006626D03*
X006696Y006616D03*
X006691Y006606D03*
X006451Y006376D03*
X006456Y006366D03*
X006451Y006111D03*
X006446Y006101D03*
X006441Y006096D03*
X006436Y006086D03*
X005241Y007331D03*
X004406Y007226D03*
X004401Y007221D03*
X004401Y007216D03*
X004396Y007211D03*
X004396Y007206D03*
X003936Y006816D03*
X003931Y006806D03*
X003926Y006801D03*
X003926Y006796D03*
X003921Y006791D03*
X003916Y006781D03*
X003921Y006511D03*
X003921Y006506D03*
X003926Y006501D03*
X003931Y006491D03*
X004036Y006351D03*
X004026Y006331D03*
X004021Y006321D03*
X004016Y006316D03*
X004011Y006306D03*
X004006Y006296D03*
X004006Y006041D03*
X004011Y006031D03*
X004016Y006021D03*
X004021Y006016D03*
X004021Y006011D03*
X004026Y006006D03*
X004791Y005871D03*
D102*
X005079Y005876D03*
X005329Y006051D03*
X006449Y006106D03*
X006454Y006116D03*
X006454Y006121D03*
X006459Y006126D03*
X006459Y006131D03*
X006464Y006136D03*
X006464Y006141D03*
X006464Y006146D03*
X006469Y006156D03*
X006474Y006316D03*
X006469Y006336D03*
X006464Y006346D03*
X006464Y006351D03*
X006459Y006356D03*
X006459Y006361D03*
X006454Y006371D03*
X006449Y006381D03*
X006699Y006621D03*
X006704Y006631D03*
X006709Y006641D03*
X006714Y006651D03*
X006714Y006656D03*
X006719Y006661D03*
X006719Y006666D03*
X006724Y006676D03*
X006724Y006681D03*
X006724Y006851D03*
X006719Y006866D03*
X006719Y006871D03*
X006714Y006876D03*
X006714Y006881D03*
X006709Y006891D03*
X006704Y006901D03*
X006699Y006911D03*
X004394Y007201D03*
X004389Y007196D03*
X004389Y007191D03*
X004384Y007186D03*
X004384Y007181D03*
X004379Y007171D03*
X004379Y007166D03*
X004374Y007156D03*
X003919Y006786D03*
X003914Y006776D03*
X003914Y006771D03*
X003909Y006766D03*
X003909Y006761D03*
X003904Y006756D03*
X003904Y006751D03*
X003899Y006736D03*
X003894Y006581D03*
X003899Y006561D03*
X003904Y006551D03*
X003904Y006546D03*
X003909Y006536D03*
X003909Y006531D03*
X003914Y006526D03*
X003914Y006521D03*
X003919Y006516D03*
X004014Y006311D03*
X004009Y006301D03*
X004004Y006291D03*
X004004Y006286D03*
X003999Y006281D03*
X003999Y006276D03*
X003994Y006266D03*
X003994Y006261D03*
X003989Y006091D03*
X003994Y006071D03*
X003999Y006061D03*
X003999Y006056D03*
X004004Y006051D03*
X004004Y006046D03*
X004009Y006036D03*
X004014Y006026D03*
D103*
X003984Y006111D03*
X003979Y006141D03*
X003979Y006146D03*
X003979Y006151D03*
X003979Y006156D03*
X003979Y006161D03*
X003979Y006166D03*
X003979Y006171D03*
X003979Y006191D03*
X003979Y006196D03*
X003979Y006201D03*
X003889Y006606D03*
X003889Y006611D03*
X003889Y006686D03*
X003889Y006691D03*
X003889Y006696D03*
X004364Y007106D03*
X004364Y007111D03*
X004369Y007136D03*
X005239Y007326D03*
X005804Y007431D03*
X006734Y006811D03*
X006734Y006806D03*
X006734Y006721D03*
X006479Y006291D03*
X006479Y006201D03*
X006479Y006196D03*
X005259Y006101D03*
X004794Y005876D03*
D104*
X005956Y005881D03*
X004881Y007431D03*
D105*
X005234Y007351D03*
X006259Y007196D03*
X006564Y007051D03*
X006564Y006481D03*
X006474Y006416D03*
X006304Y005956D03*
X005744Y005916D03*
X005309Y006061D03*
X004154Y005881D03*
D106*
X004051Y005971D03*
X004046Y005976D03*
X004041Y005981D03*
X003961Y006451D03*
X003956Y006456D03*
X003951Y006461D03*
X003951Y006466D03*
X003946Y006471D03*
X003941Y006476D03*
X003946Y006831D03*
X003951Y006836D03*
X003956Y006841D03*
X003956Y006846D03*
X004426Y007256D03*
X004431Y007261D03*
X005086Y005886D03*
X006236Y007206D03*
X006661Y006966D03*
X006666Y006961D03*
X006671Y006956D03*
X006676Y006946D03*
X006676Y006586D03*
X006671Y006576D03*
X006666Y006571D03*
X006661Y006566D03*
X006421Y006061D03*
X006416Y006056D03*
X006411Y006051D03*
D107*
X005741Y006121D03*
X005741Y006126D03*
X005686Y006591D03*
X005521Y006591D03*
X005521Y006596D03*
X005116Y006261D03*
X005116Y006256D03*
X004986Y006456D03*
X004986Y006461D03*
X004801Y005891D03*
X005241Y007311D03*
D108*
X005359Y007196D03*
X005839Y007416D03*
X006149Y007101D03*
X005634Y006666D03*
X005639Y006656D03*
X005524Y006621D03*
X005524Y006616D03*
X005484Y006551D03*
X005484Y006546D03*
X005479Y006541D03*
X005474Y006536D03*
X005474Y006531D03*
X005469Y006526D03*
X005469Y006521D03*
X005464Y006516D03*
X005459Y006506D03*
X005454Y006501D03*
X005454Y006496D03*
X005449Y006491D03*
X005444Y006481D03*
X005439Y006476D03*
X005439Y006471D03*
X005434Y006466D03*
X005429Y006456D03*
X005424Y006446D03*
X005419Y006441D03*
X005414Y006431D03*
X005409Y006421D03*
X005399Y006406D03*
X005394Y006396D03*
X005384Y006381D03*
X005379Y006371D03*
X005374Y006361D03*
X005119Y006226D03*
X005119Y006221D03*
X004969Y006516D03*
X004969Y006521D03*
X004964Y006526D03*
X004964Y006531D03*
X004799Y005896D03*
X005744Y006101D03*
D109*
X005981Y005901D03*
D110*
X005989Y005906D03*
D111*
X006186Y005911D03*
X006306Y007166D03*
D112*
X006214Y005916D03*
X004629Y007396D03*
X004284Y007046D03*
D113*
X004434Y007266D03*
X004439Y007271D03*
X004444Y007276D03*
X003969Y006856D03*
X003964Y006851D03*
X003964Y006446D03*
X003969Y006441D03*
X004034Y006366D03*
X004054Y005966D03*
X004059Y005961D03*
X004064Y005956D03*
X004069Y005951D03*
X005239Y007336D03*
X006454Y006391D03*
X006644Y006546D03*
X006649Y006551D03*
X006654Y006556D03*
X006659Y006561D03*
X006659Y006971D03*
X006654Y006976D03*
X006649Y006981D03*
X006409Y006046D03*
X006404Y006041D03*
X006399Y006036D03*
D114*
X005749Y006016D03*
X005709Y006461D03*
X005709Y006466D03*
X005129Y006116D03*
X004914Y006691D03*
X004914Y006696D03*
X005244Y007296D03*
D115*
X005346Y007286D03*
X005346Y007281D03*
X005531Y006691D03*
X005531Y006686D03*
X005706Y006471D03*
X005746Y006021D03*
X005131Y006121D03*
X005131Y006126D03*
X004916Y006681D03*
X004916Y006686D03*
D116*
X004919Y006676D03*
X004919Y006671D03*
X005129Y006136D03*
X005129Y006131D03*
X005709Y006476D03*
X005529Y006681D03*
X005349Y007271D03*
X005349Y007276D03*
X004884Y007516D03*
X005749Y006026D03*
D117*
X005746Y006031D03*
X005746Y006036D03*
X005706Y006481D03*
X005706Y006486D03*
X005531Y006676D03*
X004926Y006656D03*
X004926Y006651D03*
X004921Y006661D03*
X004921Y006666D03*
D118*
X004931Y006636D03*
X004931Y006631D03*
X005126Y006161D03*
X005126Y006156D03*
X005126Y006151D03*
X005701Y006501D03*
X005746Y006051D03*
X005746Y006046D03*
X005351Y007251D03*
X005351Y007256D03*
D119*
X005369Y007131D03*
X005369Y007126D03*
X005519Y006571D03*
X005519Y006566D03*
X005679Y006626D03*
X005679Y006631D03*
X005744Y006156D03*
X005114Y006296D03*
X005009Y006386D03*
X005004Y006396D03*
X005004Y006401D03*
D120*
X004944Y006591D03*
X004944Y006596D03*
X005124Y006181D03*
X005124Y006176D03*
X005529Y006651D03*
X005699Y006526D03*
X005699Y006521D03*
X005354Y007231D03*
X005354Y007236D03*
D121*
X004231Y007006D03*
X004216Y006996D03*
X004206Y006991D03*
D122*
X004224Y007001D03*
X006319Y007156D03*
D123*
X005221Y007381D03*
X004881Y007496D03*
X004256Y007026D03*
D124*
X004271Y007036D03*
X004646Y007401D03*
X006301Y007171D03*
D125*
X006359Y007106D03*
X005649Y007511D03*
D126*
X006356Y007111D03*
D127*
X006346Y007121D03*
X004881Y007481D03*
D128*
X006344Y007126D03*
D129*
X006296Y007176D03*
D130*
X005216Y007386D03*
D131*
X005214Y007391D03*
D132*
X005206Y007396D03*
X005666Y007521D03*
D133*
X005196Y007401D03*
X004881Y007476D03*
D134*
X004974Y007406D03*
D135*
X004984Y007411D03*
D136*
X004996Y007416D03*
D137*
X005011Y007421D03*
D138*
X005029Y007426D03*
D139*
X005569Y007441D03*
X005574Y007446D03*
D140*
X004881Y007446D03*
D141*
X005579Y007451D03*
D142*
X004881Y007451D03*
D143*
X004881Y007456D03*
X005586Y007461D03*
D144*
X005596Y007471D03*
X004881Y007461D03*
D145*
X004881Y007466D03*
D146*
X004879Y007471D03*
D147*
X005604Y007476D03*
D148*
X005619Y007491D03*
D149*
X004879Y007491D03*
D150*
X005626Y007496D03*
D151*
X005641Y007506D03*
D152*
X005676Y007526D03*
D153*
X005663Y009360D02*
X005663Y009530D01*
X005550Y009644D01*
X005550Y009700D01*
X005663Y009530D02*
X005777Y009644D01*
X005777Y009700D01*
X005918Y009644D02*
X005918Y009587D01*
X005975Y009530D01*
X006145Y009530D01*
X006145Y009360D02*
X005975Y009360D01*
X005918Y009417D01*
X005918Y009473D01*
X005975Y009530D01*
X005918Y009644D02*
X005975Y009700D01*
X006145Y009700D01*
X006145Y009360D01*
X006655Y009417D02*
X006712Y009360D01*
X006825Y009360D01*
X006882Y009417D01*
X006882Y009644D01*
X006825Y009700D01*
X006712Y009700D01*
X006655Y009644D01*
X007023Y009644D02*
X007080Y009700D01*
X007193Y009700D01*
X007250Y009644D01*
X007250Y009417D01*
X007193Y009360D01*
X007080Y009360D01*
X007023Y009417D01*
X005408Y009530D02*
X005182Y009530D01*
X005040Y009587D02*
X004983Y009530D01*
X004870Y009530D01*
X004813Y009473D01*
X004813Y009417D01*
X004870Y009360D01*
X004983Y009360D01*
X005040Y009417D01*
X005040Y009587D02*
X005040Y009644D01*
X004983Y009700D01*
X004870Y009700D01*
X004813Y009644D01*
X004672Y009587D02*
X004558Y009700D01*
X004445Y009587D01*
X004445Y009360D01*
X004445Y009530D02*
X004672Y009530D01*
X004672Y009587D02*
X004672Y009360D01*
X003935Y009417D02*
X003878Y009360D01*
X003765Y009360D01*
X003708Y009417D01*
X003708Y009473D01*
X003765Y009530D01*
X003822Y009530D01*
X003765Y009530D02*
X003708Y009587D01*
X003708Y009644D01*
X003765Y009700D01*
X003878Y009700D01*
X003935Y009644D01*
X003567Y009417D02*
X003510Y009417D01*
X003510Y009360D01*
X003567Y009360D01*
X003567Y009417D01*
X003383Y009417D02*
X003383Y009644D01*
X003326Y009700D01*
X003213Y009700D01*
X003156Y009644D01*
X003383Y009417D01*
X003326Y009360D01*
X003213Y009360D01*
X003156Y009417D01*
X003156Y009644D01*
D154*
X008094Y008752D02*
X008094Y008608D01*
X008284Y008589D01*
X008305Y008525D01*
X008336Y008465D01*
X008215Y008316D01*
X008316Y008215D01*
X008465Y008336D01*
X008525Y008305D01*
X008609Y008509D01*
X008571Y008531D01*
X008539Y008561D01*
X008515Y008598D01*
X008500Y008640D01*
X008496Y008684D01*
X008502Y008728D01*
X008518Y008769D01*
X008544Y008805D01*
X008578Y008833D01*
X008617Y008853D01*
X008660Y008863D01*
X008704Y008863D01*
X008747Y008852D01*
X008786Y008831D01*
X008819Y008802D01*
X008844Y008765D01*
X008859Y008724D01*
X008865Y008680D01*
X008859Y008637D01*
X008844Y008596D01*
X008820Y008560D01*
X008788Y008531D01*
X008751Y008509D01*
X008835Y008305D01*
X008895Y008336D01*
X009044Y008215D01*
X009145Y008316D01*
X009024Y008465D01*
X009055Y008525D01*
X009076Y008589D01*
X009266Y008608D01*
X009266Y008752D01*
X009076Y008771D01*
X009055Y008835D01*
X009024Y008895D01*
X009145Y009044D01*
X009044Y009145D01*
X008895Y009024D01*
X008835Y009055D01*
X008771Y009076D01*
X008752Y009266D01*
X008608Y009266D01*
X008589Y009076D01*
X008525Y009055D01*
X008465Y009024D01*
X008316Y009145D01*
X008215Y009044D01*
X008336Y008895D01*
X008305Y008835D01*
X008284Y008771D01*
X008094Y008752D01*
X008094Y008738D02*
X008506Y008738D01*
X008496Y008680D02*
X008094Y008680D01*
X008094Y008623D02*
X008506Y008623D01*
X008536Y008565D02*
X008292Y008565D01*
X008314Y008508D02*
X008609Y008508D01*
X008585Y008450D02*
X008324Y008450D01*
X008277Y008392D02*
X008561Y008392D01*
X008537Y008335D02*
X008466Y008335D01*
X008464Y008335D02*
X008230Y008335D01*
X008254Y008277D02*
X008393Y008277D01*
X008323Y008220D02*
X008311Y008220D01*
X008799Y008392D02*
X009083Y008392D01*
X009130Y008335D02*
X008896Y008335D01*
X008894Y008335D02*
X008823Y008335D01*
X008775Y008450D02*
X009036Y008450D01*
X009046Y008508D02*
X008751Y008508D01*
X008824Y008565D02*
X009068Y008565D01*
X009266Y008623D02*
X008854Y008623D01*
X008865Y008680D02*
X009266Y008680D01*
X009266Y008738D02*
X008854Y008738D01*
X008823Y008795D02*
X009068Y008795D01*
X009046Y008853D02*
X008743Y008853D01*
X008616Y008853D02*
X008314Y008853D01*
X008323Y008910D02*
X009037Y008910D01*
X009084Y008968D02*
X008276Y008968D01*
X008229Y009026D02*
X008463Y009026D01*
X008467Y009026D02*
X008893Y009026D01*
X008897Y009026D02*
X009131Y009026D01*
X009106Y009083D02*
X008967Y009083D01*
X009038Y009141D02*
X009048Y009141D01*
X008765Y009141D02*
X008595Y009141D01*
X008601Y009198D02*
X008759Y009198D01*
X008753Y009256D02*
X008607Y009256D01*
X008589Y009083D02*
X008771Y009083D01*
X008537Y008795D02*
X008292Y008795D01*
X008254Y009083D02*
X008393Y009083D01*
X008322Y009141D02*
X008312Y009141D01*
X008967Y008277D02*
X009106Y008277D01*
X009049Y008220D02*
X009037Y008220D01*
M02*
