G75*
G70*
%OFA0B0*%
%FSLAX24Y24*%
%IPPOS*%
%LPD*%
%AMOC8*
5,1,8,0,0,1.08239X$1,22.5*
%
%ADD10C,0.0000*%
%ADD11C,0.0120*%
%ADD12R,0.0005X0.0110*%
%ADD13R,0.0005X0.0210*%
%ADD14R,0.0005X0.0280*%
%ADD15R,0.0005X0.0325*%
%ADD16R,0.0005X0.0365*%
%ADD17R,0.0005X0.0410*%
%ADD18R,0.0005X0.0440*%
%ADD19R,0.0005X0.0470*%
%ADD20R,0.0005X0.0505*%
%ADD21R,0.0005X0.0530*%
%ADD22R,0.0005X0.0555*%
%ADD23R,0.0005X0.0580*%
%ADD24R,0.0005X0.0600*%
%ADD25R,0.0005X0.0625*%
%ADD26R,0.0005X0.0645*%
%ADD27R,0.0005X0.0665*%
%ADD28R,0.0005X0.0685*%
%ADD29R,0.0005X0.0705*%
%ADD30R,0.0005X0.0715*%
%ADD31R,0.0005X0.0735*%
%ADD32R,0.0005X0.0755*%
%ADD33R,0.0005X0.0090*%
%ADD34R,0.0005X0.0770*%
%ADD35R,0.0005X0.0190*%
%ADD36R,0.0005X0.0355*%
%ADD37R,0.0005X0.0360*%
%ADD38R,0.0005X0.0260*%
%ADD39R,0.0005X0.0315*%
%ADD40R,0.0005X0.0320*%
%ADD41R,0.0005X0.0295*%
%ADD42R,0.0005X0.0275*%
%ADD43R,0.0005X0.0400*%
%ADD44R,0.0005X0.0265*%
%ADD45R,0.0005X0.0435*%
%ADD46R,0.0005X0.0255*%
%ADD47R,0.0005X0.0465*%
%ADD48R,0.0005X0.0245*%
%ADD49R,0.0005X0.0495*%
%ADD50R,0.0005X0.0235*%
%ADD51R,0.0005X0.0525*%
%ADD52R,0.0005X0.0230*%
%ADD53R,0.0005X0.0240*%
%ADD54R,0.0005X0.0545*%
%ADD55R,0.0005X0.0820*%
%ADD56R,0.0005X0.0220*%
%ADD57R,0.0005X0.0025*%
%ADD58R,0.0005X0.0795*%
%ADD59R,0.0005X0.0215*%
%ADD60R,0.0005X0.0035*%
%ADD61R,0.0005X0.0040*%
%ADD62R,0.0005X0.0800*%
%ADD63R,0.0005X0.0205*%
%ADD64R,0.0005X0.0050*%
%ADD65R,0.0005X0.0805*%
%ADD66R,0.0005X0.0165*%
%ADD67R,0.0005X0.0055*%
%ADD68R,0.0005X0.0200*%
%ADD69R,0.0005X0.0060*%
%ADD70R,0.0005X0.0300*%
%ADD71R,0.0005X0.0195*%
%ADD72R,0.0005X0.0065*%
%ADD73R,0.0005X0.0345*%
%ADD74R,0.0005X0.0070*%
%ADD75R,0.0005X0.0385*%
%ADD76R,0.0005X0.0080*%
%ADD77R,0.0005X0.0425*%
%ADD78R,0.0005X0.0185*%
%ADD79R,0.0005X0.0085*%
%ADD80R,0.0005X0.0635*%
%ADD81R,0.0005X0.0810*%
%ADD82R,0.0005X0.0095*%
%ADD83R,0.0005X0.0335*%
%ADD84R,0.0005X0.0655*%
%ADD85R,0.0005X0.0105*%
%ADD86R,0.0005X0.0290*%
%ADD87R,0.0005X0.0660*%
%ADD88R,0.0005X0.0115*%
%ADD89R,0.0005X0.0285*%
%ADD90R,0.0005X0.0120*%
%ADD91R,0.0005X0.0270*%
%ADD92R,0.0005X0.0675*%
%ADD93R,0.0005X0.0130*%
%ADD94R,0.0005X0.0680*%
%ADD95R,0.0005X0.0135*%
%ADD96R,0.0005X0.0250*%
%ADD97R,0.0005X0.0140*%
%ADD98R,0.0005X0.0180*%
%ADD99R,0.0005X0.0695*%
%ADD100R,0.0005X0.0150*%
%ADD101R,0.0005X0.0160*%
%ADD102R,0.0005X0.0155*%
%ADD103R,0.0005X0.0145*%
%ADD104R,0.0005X0.0700*%
%ADD105R,0.0005X0.0225*%
%ADD106R,0.0005X0.0170*%
%ADD107R,0.0005X0.0100*%
%ADD108R,0.0005X0.0075*%
%ADD109R,0.0005X0.0720*%
%ADD110R,0.0005X0.0725*%
%ADD111R,0.0005X0.0340*%
%ADD112R,0.0005X0.0305*%
%ADD113R,0.0005X0.0175*%
%ADD114R,0.0005X0.0005*%
%ADD115R,0.0005X0.0010*%
%ADD116R,0.0005X0.0015*%
%ADD117R,0.0005X0.0020*%
%ADD118R,0.0005X0.0030*%
%ADD119R,0.0005X0.0125*%
%ADD120R,0.0005X0.0045*%
%ADD121R,0.0005X0.0370*%
%ADD122R,0.0005X0.0375*%
%ADD123R,0.0005X0.0350*%
%ADD124R,0.0005X0.0330*%
%ADD125R,0.0005X0.0485*%
%ADD126R,0.0005X0.0480*%
%ADD127R,0.0005X0.0460*%
%ADD128R,0.0005X0.0445*%
%ADD129R,0.0005X0.0310*%
%ADD130R,0.0005X0.0380*%
%ADD131R,0.0005X0.0415*%
%ADD132R,0.0005X0.0450*%
%ADD133R,0.0005X0.0490*%
%ADD134R,0.0005X0.0965*%
%ADD135R,0.0005X0.0975*%
%ADD136R,0.0005X0.0980*%
%ADD137R,0.0005X0.0990*%
%ADD138R,0.0005X0.1005*%
%ADD139R,0.0005X0.0615*%
%ADD140R,0.0005X0.0640*%
%ADD141R,0.0005X0.0605*%
%ADD142R,0.0005X0.0620*%
%ADD143R,0.0005X0.0590*%
%ADD144R,0.0005X0.0570*%
%ADD145R,0.0005X0.0540*%
%ADD146R,0.0005X0.0515*%
%ADD147R,0.0005X0.0565*%
%ADD148R,0.0005X0.0535*%
%ADD149R,0.0005X0.0395*%
%ADD150R,0.0005X0.0520*%
%ADD151R,0.0005X0.0500*%
%ADD152R,0.0005X0.0430*%
%ADD153C,0.0080*%
%ADD154C,0.0060*%
D10*
X001905Y000705D02*
X008655Y000705D01*
X008723Y000707D01*
X008790Y000712D01*
X008857Y000721D01*
X008924Y000734D01*
X008989Y000751D01*
X009054Y000770D01*
X009118Y000794D01*
X009180Y000821D01*
X009241Y000851D01*
X009299Y000884D01*
X009356Y000920D01*
X009411Y000960D01*
X009464Y001002D01*
X009515Y001048D01*
X009562Y001095D01*
X009608Y001146D01*
X009650Y001199D01*
X009690Y001254D01*
X009726Y001311D01*
X009759Y001369D01*
X009789Y001430D01*
X009816Y001492D01*
X009840Y001556D01*
X009859Y001621D01*
X009876Y001686D01*
X009889Y001753D01*
X009898Y001820D01*
X009903Y001887D01*
X009905Y001955D01*
X009905Y008705D01*
X009903Y008773D01*
X009898Y008840D01*
X009889Y008907D01*
X009876Y008974D01*
X009859Y009039D01*
X009840Y009104D01*
X009816Y009168D01*
X009789Y009230D01*
X009759Y009291D01*
X009726Y009349D01*
X009690Y009406D01*
X009650Y009461D01*
X009608Y009514D01*
X009562Y009565D01*
X009515Y009612D01*
X009464Y009658D01*
X009411Y009700D01*
X009356Y009740D01*
X009299Y009776D01*
X009241Y009809D01*
X009180Y009839D01*
X009118Y009866D01*
X009054Y009890D01*
X008989Y009909D01*
X008924Y009926D01*
X008857Y009939D01*
X008790Y009948D01*
X008723Y009953D01*
X008655Y009955D01*
X001905Y009955D01*
X001837Y009953D01*
X001770Y009948D01*
X001703Y009939D01*
X001636Y009926D01*
X001571Y009909D01*
X001506Y009890D01*
X001442Y009866D01*
X001380Y009839D01*
X001319Y009809D01*
X001261Y009776D01*
X001204Y009740D01*
X001149Y009700D01*
X001096Y009658D01*
X001045Y009612D01*
X000998Y009565D01*
X000952Y009514D01*
X000910Y009461D01*
X000870Y009406D01*
X000834Y009349D01*
X000801Y009291D01*
X000771Y009230D01*
X000744Y009168D01*
X000720Y009104D01*
X000701Y009039D01*
X000684Y008974D01*
X000671Y008907D01*
X000662Y008840D01*
X000657Y008773D01*
X000655Y008705D01*
X000655Y001955D01*
X000656Y001955D02*
X000654Y001889D01*
X000656Y001823D01*
X000662Y001757D01*
X000671Y001691D01*
X000684Y001626D01*
X000701Y001561D01*
X000721Y001498D01*
X000745Y001436D01*
X000772Y001376D01*
X000803Y001317D01*
X000837Y001259D01*
X000874Y001204D01*
X000914Y001151D01*
X000957Y001101D01*
X001002Y001052D01*
X001051Y001007D01*
X001101Y000964D01*
X001154Y000924D01*
X001209Y000887D01*
X001267Y000853D01*
X001326Y000822D01*
X001386Y000795D01*
X001448Y000771D01*
X001511Y000751D01*
X001576Y000734D01*
X001641Y000721D01*
X001707Y000712D01*
X001773Y000706D01*
X001839Y000704D01*
X001905Y000706D01*
X001280Y003205D02*
X001282Y003255D01*
X001288Y003304D01*
X001298Y003353D01*
X001311Y003400D01*
X001329Y003447D01*
X001350Y003492D01*
X001374Y003535D01*
X001402Y003576D01*
X001433Y003615D01*
X001467Y003651D01*
X001504Y003685D01*
X001544Y003715D01*
X001585Y003742D01*
X001629Y003766D01*
X001674Y003786D01*
X001721Y003802D01*
X001769Y003815D01*
X001818Y003824D01*
X001868Y003829D01*
X001917Y003830D01*
X001967Y003827D01*
X002016Y003820D01*
X002065Y003809D01*
X002112Y003795D01*
X002158Y003776D01*
X002203Y003754D01*
X002246Y003729D01*
X002286Y003700D01*
X002324Y003668D01*
X002360Y003634D01*
X002393Y003596D01*
X002422Y003556D01*
X002448Y003514D01*
X002471Y003470D01*
X002490Y003424D01*
X002506Y003377D01*
X002518Y003328D01*
X002526Y003279D01*
X002530Y003230D01*
X002530Y003180D01*
X002526Y003131D01*
X002518Y003082D01*
X002506Y003033D01*
X002490Y002986D01*
X002471Y002940D01*
X002448Y002896D01*
X002422Y002854D01*
X002393Y002814D01*
X002360Y002776D01*
X002324Y002742D01*
X002286Y002710D01*
X002246Y002681D01*
X002203Y002656D01*
X002158Y002634D01*
X002112Y002615D01*
X002065Y002601D01*
X002016Y002590D01*
X001967Y002583D01*
X001917Y002580D01*
X001868Y002581D01*
X001818Y002586D01*
X001769Y002595D01*
X001721Y002608D01*
X001674Y002624D01*
X001629Y002644D01*
X001585Y002668D01*
X001544Y002695D01*
X001504Y002725D01*
X001467Y002759D01*
X001433Y002795D01*
X001402Y002834D01*
X001374Y002875D01*
X001350Y002918D01*
X001329Y002963D01*
X001311Y003010D01*
X001298Y003057D01*
X001288Y003106D01*
X001282Y003155D01*
X001280Y003205D01*
X008030Y003205D02*
X008032Y003255D01*
X008038Y003304D01*
X008048Y003353D01*
X008061Y003400D01*
X008079Y003447D01*
X008100Y003492D01*
X008124Y003535D01*
X008152Y003576D01*
X008183Y003615D01*
X008217Y003651D01*
X008254Y003685D01*
X008294Y003715D01*
X008335Y003742D01*
X008379Y003766D01*
X008424Y003786D01*
X008471Y003802D01*
X008519Y003815D01*
X008568Y003824D01*
X008618Y003829D01*
X008667Y003830D01*
X008717Y003827D01*
X008766Y003820D01*
X008815Y003809D01*
X008862Y003795D01*
X008908Y003776D01*
X008953Y003754D01*
X008996Y003729D01*
X009036Y003700D01*
X009074Y003668D01*
X009110Y003634D01*
X009143Y003596D01*
X009172Y003556D01*
X009198Y003514D01*
X009221Y003470D01*
X009240Y003424D01*
X009256Y003377D01*
X009268Y003328D01*
X009276Y003279D01*
X009280Y003230D01*
X009280Y003180D01*
X009276Y003131D01*
X009268Y003082D01*
X009256Y003033D01*
X009240Y002986D01*
X009221Y002940D01*
X009198Y002896D01*
X009172Y002854D01*
X009143Y002814D01*
X009110Y002776D01*
X009074Y002742D01*
X009036Y002710D01*
X008996Y002681D01*
X008953Y002656D01*
X008908Y002634D01*
X008862Y002615D01*
X008815Y002601D01*
X008766Y002590D01*
X008717Y002583D01*
X008667Y002580D01*
X008618Y002581D01*
X008568Y002586D01*
X008519Y002595D01*
X008471Y002608D01*
X008424Y002624D01*
X008379Y002644D01*
X008335Y002668D01*
X008294Y002695D01*
X008254Y002725D01*
X008217Y002759D01*
X008183Y002795D01*
X008152Y002834D01*
X008124Y002875D01*
X008100Y002918D01*
X008079Y002963D01*
X008061Y003010D01*
X008048Y003057D01*
X008038Y003106D01*
X008032Y003155D01*
X008030Y003205D01*
D11*
X008655Y004080D02*
X008597Y004078D01*
X008538Y004072D01*
X008481Y004062D01*
X008424Y004049D01*
X008368Y004032D01*
X008313Y004011D01*
X008260Y003986D01*
X008209Y003958D01*
X008160Y003926D01*
X008113Y003892D01*
X008068Y003854D01*
X008026Y003813D01*
X007987Y003770D01*
X007951Y003724D01*
X007917Y003676D01*
X007888Y003626D01*
X007861Y003573D01*
X007838Y003519D01*
X007819Y003464D01*
X007804Y003408D01*
X007792Y003351D01*
X007784Y003293D01*
X007780Y003234D01*
X007780Y003176D01*
X007784Y003117D01*
X007792Y003059D01*
X007804Y003002D01*
X007819Y002946D01*
X007838Y002891D01*
X007861Y002837D01*
X007888Y002784D01*
X007917Y002734D01*
X007951Y002686D01*
X007987Y002640D01*
X008026Y002597D01*
X008068Y002556D01*
X008113Y002518D01*
X008160Y002484D01*
X008209Y002452D01*
X008260Y002424D01*
X008313Y002399D01*
X008368Y002378D01*
X008424Y002361D01*
X008481Y002348D01*
X008538Y002338D01*
X008597Y002332D01*
X008655Y002330D01*
X008713Y002332D01*
X008772Y002338D01*
X008829Y002348D01*
X008886Y002361D01*
X008942Y002378D01*
X008997Y002399D01*
X009050Y002424D01*
X009101Y002452D01*
X009150Y002484D01*
X009197Y002518D01*
X009242Y002556D01*
X009284Y002597D01*
X009323Y002640D01*
X009359Y002686D01*
X009393Y002734D01*
X009422Y002784D01*
X009449Y002837D01*
X009472Y002891D01*
X009491Y002946D01*
X009506Y003002D01*
X009518Y003059D01*
X009526Y003117D01*
X009530Y003176D01*
X009530Y003234D01*
X009526Y003293D01*
X009518Y003351D01*
X009506Y003408D01*
X009491Y003464D01*
X009472Y003519D01*
X009449Y003573D01*
X009422Y003626D01*
X009393Y003676D01*
X009359Y003724D01*
X009323Y003770D01*
X009284Y003813D01*
X009242Y003854D01*
X009197Y003892D01*
X009150Y003926D01*
X009101Y003958D01*
X009050Y003986D01*
X008997Y004011D01*
X008942Y004032D01*
X008886Y004049D01*
X008829Y004062D01*
X008772Y004072D01*
X008713Y004078D01*
X008655Y004080D01*
X001905Y004080D02*
X001847Y004078D01*
X001788Y004072D01*
X001731Y004062D01*
X001674Y004049D01*
X001618Y004032D01*
X001563Y004011D01*
X001510Y003986D01*
X001459Y003958D01*
X001410Y003926D01*
X001363Y003892D01*
X001318Y003854D01*
X001276Y003813D01*
X001237Y003770D01*
X001201Y003724D01*
X001167Y003676D01*
X001138Y003626D01*
X001111Y003573D01*
X001088Y003519D01*
X001069Y003464D01*
X001054Y003408D01*
X001042Y003351D01*
X001034Y003293D01*
X001030Y003234D01*
X001030Y003176D01*
X001034Y003117D01*
X001042Y003059D01*
X001054Y003002D01*
X001069Y002946D01*
X001088Y002891D01*
X001111Y002837D01*
X001138Y002784D01*
X001167Y002734D01*
X001201Y002686D01*
X001237Y002640D01*
X001276Y002597D01*
X001318Y002556D01*
X001363Y002518D01*
X001410Y002484D01*
X001459Y002452D01*
X001510Y002424D01*
X001563Y002399D01*
X001618Y002378D01*
X001674Y002361D01*
X001731Y002348D01*
X001788Y002338D01*
X001847Y002332D01*
X001905Y002330D01*
X001963Y002332D01*
X002022Y002338D01*
X002079Y002348D01*
X002136Y002361D01*
X002192Y002378D01*
X002247Y002399D01*
X002300Y002424D01*
X002351Y002452D01*
X002400Y002484D01*
X002447Y002518D01*
X002492Y002556D01*
X002534Y002597D01*
X002573Y002640D01*
X002609Y002686D01*
X002643Y002734D01*
X002672Y002784D01*
X002699Y002837D01*
X002722Y002891D01*
X002741Y002946D01*
X002756Y003002D01*
X002768Y003059D01*
X002776Y003117D01*
X002780Y003176D01*
X002780Y003234D01*
X002776Y003293D01*
X002768Y003351D01*
X002756Y003408D01*
X002741Y003464D01*
X002722Y003519D01*
X002699Y003573D01*
X002672Y003626D01*
X002643Y003676D01*
X002609Y003724D01*
X002573Y003770D01*
X002534Y003813D01*
X002492Y003854D01*
X002447Y003892D01*
X002400Y003926D01*
X002351Y003958D01*
X002300Y003986D01*
X002247Y004011D01*
X002192Y004032D01*
X002136Y004049D01*
X002079Y004062D01*
X002022Y004072D01*
X001963Y004078D01*
X001905Y004080D01*
D12*
X002224Y007619D03*
X002419Y007649D03*
X002319Y008024D03*
X002329Y008039D03*
X002334Y008044D03*
X002339Y008054D03*
X002344Y008059D03*
X002349Y008069D03*
X002354Y008074D03*
X002359Y008079D03*
X002364Y008089D03*
X002369Y008094D03*
X002379Y008109D03*
X002389Y008124D03*
X002394Y008129D03*
X002404Y008144D03*
X002434Y008189D03*
X002444Y008204D03*
X002449Y008209D03*
X002454Y008214D03*
X002464Y008229D03*
X002739Y008124D03*
X002089Y008244D03*
X001934Y008364D03*
X001929Y008364D03*
X001924Y008369D03*
X001919Y008369D03*
X001779Y007839D03*
X001774Y007839D03*
X001754Y007679D03*
X001749Y007679D03*
X001214Y007994D03*
X001209Y007994D03*
D13*
X001014Y008124D03*
X000819Y007714D03*
X001324Y006774D03*
X001864Y006774D03*
X001869Y006779D03*
X002389Y007034D03*
X002569Y007764D03*
X002734Y008124D03*
X002464Y009229D03*
X001434Y009314D03*
X001284Y009029D03*
D14*
X001304Y009064D03*
X000824Y007714D03*
X001274Y006869D03*
X002729Y008124D03*
X002614Y008399D03*
D15*
X002724Y008126D03*
X002524Y009096D03*
X000984Y008136D03*
X000829Y007716D03*
D16*
X001349Y009121D03*
X002719Y008126D03*
D17*
X002714Y008124D03*
X001219Y007029D03*
D18*
X001229Y007019D03*
X002709Y008124D03*
D19*
X002704Y008124D03*
X001244Y007009D03*
D20*
X000859Y007726D03*
X002699Y008126D03*
D21*
X002694Y008124D03*
D22*
X002689Y008126D03*
X000879Y007751D03*
D23*
X000894Y007769D03*
X002684Y008124D03*
D24*
X002679Y008124D03*
X000904Y007779D03*
D25*
X002674Y008126D03*
D26*
X002669Y008126D03*
X002524Y007481D03*
D27*
X002509Y007451D03*
X002664Y008126D03*
D28*
X002659Y008126D03*
X002494Y007426D03*
D29*
X002474Y007396D03*
X002654Y008126D03*
D30*
X002649Y008126D03*
X002469Y007391D03*
X002464Y007386D03*
D31*
X002644Y008126D03*
D32*
X002639Y008126D03*
D33*
X002529Y008309D03*
X002114Y008244D03*
X001884Y008379D03*
X001874Y008384D03*
X001869Y008384D03*
X001754Y007839D03*
X001779Y007674D03*
X002249Y007619D03*
X002414Y007654D03*
X002639Y008859D03*
X001184Y007999D03*
D34*
X002634Y008124D03*
D35*
X002304Y008044D03*
X002634Y008859D03*
X001979Y009334D03*
X001974Y009339D03*
X001964Y009344D03*
X001959Y009349D03*
X001954Y009354D03*
X001949Y009359D03*
X001474Y009364D03*
X001469Y009359D03*
X001464Y009354D03*
X001279Y009019D03*
X001059Y008894D03*
X001054Y008889D03*
X001049Y008884D03*
X001964Y006904D03*
X001839Y006744D03*
X001834Y006739D03*
X001354Y006739D03*
X001349Y006744D03*
X002354Y006989D03*
X002359Y006994D03*
D36*
X002629Y007911D03*
X002619Y008861D03*
X001339Y009106D03*
D37*
X001344Y009114D03*
X001374Y009164D03*
X000924Y007929D03*
X001199Y007049D03*
X001259Y006929D03*
X002629Y008339D03*
D38*
X002629Y008859D03*
X002504Y009159D03*
X001299Y009054D03*
X000979Y008774D03*
X000999Y008129D03*
X002429Y007104D03*
D39*
X002624Y007881D03*
X002624Y008371D03*
X000929Y007961D03*
D40*
X001264Y006904D03*
X002624Y008859D03*
X001379Y009194D03*
X001319Y009084D03*
D41*
X001309Y009071D03*
X001384Y009211D03*
X002619Y008386D03*
X002619Y007866D03*
X001269Y006886D03*
D42*
X001174Y007081D03*
X002279Y008051D03*
X002614Y007851D03*
X002449Y007596D03*
X002434Y007121D03*
D43*
X001214Y007034D03*
X002614Y008859D03*
D44*
X002514Y008596D03*
X002609Y008416D03*
X002289Y008061D03*
X002609Y007836D03*
X001279Y006856D03*
X001394Y009241D03*
D45*
X002609Y008861D03*
D46*
X002604Y008426D03*
X002294Y008061D03*
X002604Y007826D03*
X002424Y007096D03*
X001284Y006846D03*
X001399Y009251D03*
D47*
X002604Y008861D03*
X000844Y007701D03*
D48*
X000989Y008796D03*
X001404Y009261D03*
X002599Y008436D03*
X002599Y007816D03*
X002419Y007086D03*
X001929Y006871D03*
X001924Y006866D03*
X001899Y006831D03*
D49*
X002599Y008861D03*
D50*
X002594Y008446D03*
X002594Y007806D03*
X002554Y007401D03*
X002409Y007066D03*
X001939Y006881D03*
X001934Y006876D03*
X001299Y006816D03*
X000994Y008806D03*
X001414Y009281D03*
D51*
X002594Y008861D03*
D52*
X002489Y009189D03*
X002484Y009199D03*
X001419Y009289D03*
X001289Y009039D03*
X000999Y008814D03*
X002589Y007799D03*
X002584Y007789D03*
X001889Y006814D03*
X001884Y006804D03*
X001304Y006804D03*
D53*
X001294Y006824D03*
X001894Y006824D03*
X002414Y007074D03*
X002274Y008064D03*
X002589Y008454D03*
X002509Y008589D03*
X002494Y009179D03*
X001409Y009274D03*
X001004Y008129D03*
D54*
X000874Y007746D03*
X002589Y008861D03*
D55*
X002584Y008739D03*
D56*
X002474Y009214D03*
X001424Y009299D03*
X001009Y008829D03*
X001004Y008824D03*
X002579Y007779D03*
X002399Y007049D03*
X001314Y006789D03*
D57*
X001864Y007656D03*
X001869Y007656D03*
X001689Y007831D03*
X001714Y008431D03*
X001719Y008431D03*
X002214Y008231D03*
X002219Y008231D03*
X002579Y008336D03*
X002319Y007611D03*
X001099Y008011D03*
X001094Y008011D03*
D58*
X002579Y008761D03*
X002574Y008771D03*
D59*
X002504Y008581D03*
X002269Y008076D03*
X002574Y007771D03*
X002394Y007041D03*
X001949Y006891D03*
X001874Y006786D03*
X001319Y006781D03*
X001014Y008836D03*
X001429Y009306D03*
X002469Y009221D03*
D60*
X001749Y008421D03*
X001739Y008426D03*
X001734Y008426D03*
X001699Y007831D03*
X001694Y007831D03*
X001854Y007656D03*
X002404Y007656D03*
X002574Y008331D03*
X001114Y008006D03*
D61*
X001119Y008009D03*
X001704Y007834D03*
X001844Y007659D03*
X001849Y007659D03*
X002299Y007614D03*
X002304Y007614D03*
X002194Y008234D03*
X002189Y008234D03*
X002459Y008559D03*
X002569Y008329D03*
X001759Y008419D03*
X001754Y008419D03*
X001744Y008424D03*
D62*
X002554Y008809D03*
X002559Y008799D03*
X002569Y008779D03*
D63*
X002459Y009236D03*
X002454Y009241D03*
X001439Y009321D03*
X001024Y008851D03*
X001019Y008846D03*
X002559Y007751D03*
X002564Y007756D03*
X002384Y007026D03*
X001954Y006896D03*
X001859Y006766D03*
X001329Y006766D03*
D64*
X001829Y007664D03*
X001714Y007834D03*
X001774Y008414D03*
X001779Y008414D03*
X001134Y008004D03*
X002284Y007614D03*
X002289Y007614D03*
X002294Y007614D03*
X002564Y008329D03*
D65*
X002564Y008791D03*
X002549Y008816D03*
X002544Y008826D03*
X002539Y008831D03*
X002534Y008841D03*
D66*
X002374Y009321D03*
X002369Y009326D03*
X002364Y009326D03*
X002359Y009331D03*
X002034Y009336D03*
X002024Y009331D03*
X002019Y009326D03*
X002014Y009326D03*
X002004Y009321D03*
X001999Y009321D03*
X001879Y009421D03*
X001874Y009426D03*
X001864Y009431D03*
X001549Y009426D03*
X001539Y009421D03*
X001534Y009416D03*
X001274Y009006D03*
X001129Y008951D03*
X001124Y008946D03*
X001119Y008946D03*
X001114Y008941D03*
X001109Y008936D03*
X002479Y008276D03*
X002559Y007401D03*
X002294Y006936D03*
X002289Y006931D03*
X002284Y006931D03*
X002279Y006926D03*
X002269Y006921D03*
X001974Y006911D03*
X001779Y006686D03*
X001769Y006681D03*
X001764Y006676D03*
X001759Y006671D03*
X001749Y006666D03*
X001439Y006666D03*
X001429Y006671D03*
X001424Y006676D03*
X001419Y006681D03*
X001409Y006686D03*
D67*
X001129Y007546D03*
X001099Y007541D03*
X001069Y007536D03*
X001039Y007531D03*
X001014Y007526D03*
X001009Y007526D03*
X000984Y007521D03*
X000979Y007521D03*
X000954Y007516D03*
X000949Y007516D03*
X000829Y007496D03*
X000824Y007496D03*
X001139Y008006D03*
X001719Y007836D03*
X001824Y007661D03*
X002169Y008236D03*
X002174Y008236D03*
X002559Y008326D03*
X001799Y008406D03*
X001794Y008406D03*
X001789Y008411D03*
X001784Y008411D03*
D68*
X002499Y008579D03*
X002449Y009249D03*
X001449Y009334D03*
X001444Y009329D03*
X001029Y008859D03*
X000924Y007584D03*
X001159Y007114D03*
X001334Y006759D03*
X001339Y006754D03*
X001849Y006754D03*
X001854Y006759D03*
X001959Y006899D03*
X002374Y007014D03*
X002379Y007019D03*
X002439Y007624D03*
X002554Y007744D03*
D69*
X002279Y007614D03*
X002274Y007614D03*
X002169Y007574D03*
X002144Y007564D03*
X002119Y007554D03*
X002094Y007544D03*
X002029Y007519D03*
X002004Y007509D03*
X001979Y007499D03*
X001954Y007489D03*
X001889Y007464D03*
X001864Y007454D03*
X001839Y007444D03*
X001814Y007434D03*
X001749Y007409D03*
X001724Y007399D03*
X001699Y007389D03*
X001674Y007379D03*
X001584Y007344D03*
X001559Y007334D03*
X001534Y007324D03*
X001509Y007314D03*
X001444Y007289D03*
X001419Y007279D03*
X001394Y007269D03*
X001369Y007259D03*
X001344Y007249D03*
X001319Y007239D03*
X001304Y007234D03*
X001279Y007224D03*
X001214Y007559D03*
X001209Y007559D03*
X001204Y007559D03*
X001199Y007559D03*
X001194Y007559D03*
X001189Y007559D03*
X001184Y007554D03*
X001179Y007554D03*
X001174Y007554D03*
X001169Y007554D03*
X001164Y007554D03*
X001159Y007554D03*
X001154Y007549D03*
X001149Y007549D03*
X001144Y007549D03*
X001139Y007549D03*
X001134Y007549D03*
X001124Y007544D03*
X001119Y007544D03*
X001114Y007544D03*
X001109Y007544D03*
X001104Y007544D03*
X001094Y007539D03*
X001089Y007539D03*
X001084Y007539D03*
X001079Y007539D03*
X001074Y007539D03*
X001064Y007534D03*
X001059Y007534D03*
X001054Y007534D03*
X001049Y007534D03*
X001044Y007534D03*
X001034Y007529D03*
X001029Y007529D03*
X001024Y007529D03*
X001019Y007529D03*
X001004Y007524D03*
X000999Y007524D03*
X000994Y007524D03*
X000989Y007524D03*
X000974Y007519D03*
X000969Y007519D03*
X000964Y007519D03*
X000959Y007519D03*
X000819Y007494D03*
X000814Y007494D03*
X001219Y007564D03*
X001224Y007564D03*
X001229Y007564D03*
X001234Y007564D03*
X001239Y007564D03*
X001244Y007564D03*
X001254Y007569D03*
X001259Y007569D03*
X001264Y007569D03*
X001269Y007569D03*
X001274Y007569D03*
X001284Y007574D03*
X001289Y007574D03*
X001294Y007574D03*
X001299Y007574D03*
X001309Y007579D03*
X001314Y007579D03*
X001319Y007579D03*
X001324Y007579D03*
X001329Y007579D03*
X001339Y007584D03*
X001344Y007584D03*
X001349Y007584D03*
X001354Y007584D03*
X001359Y007584D03*
X001369Y007589D03*
X001374Y007589D03*
X001379Y007589D03*
X001384Y007589D03*
X001389Y007589D03*
X001399Y007594D03*
X001404Y007594D03*
X001409Y007594D03*
X001414Y007594D03*
X001424Y007599D03*
X001429Y007599D03*
X001434Y007599D03*
X001439Y007599D03*
X001444Y007599D03*
X001454Y007604D03*
X001459Y007604D03*
X001464Y007604D03*
X001469Y007604D03*
X001474Y007604D03*
X001484Y007609D03*
X001489Y007609D03*
X001494Y007609D03*
X001499Y007609D03*
X001504Y007609D03*
X001514Y007614D03*
X001519Y007614D03*
X001524Y007614D03*
X001529Y007614D03*
X001534Y007614D03*
X001544Y007619D03*
X001549Y007619D03*
X001554Y007619D03*
X001559Y007619D03*
X001569Y007624D03*
X001574Y007624D03*
X001579Y007624D03*
X001584Y007624D03*
X001589Y007624D03*
X001599Y007629D03*
X001604Y007629D03*
X001609Y007629D03*
X001614Y007629D03*
X001619Y007629D03*
X001629Y007634D03*
X001634Y007634D03*
X001639Y007634D03*
X001644Y007634D03*
X001649Y007634D03*
X001659Y007639D03*
X001664Y007639D03*
X001669Y007639D03*
X001674Y007639D03*
X001684Y007644D03*
X001689Y007644D03*
X001694Y007644D03*
X001699Y007644D03*
X001704Y007644D03*
X001819Y007664D03*
X001859Y007784D03*
X001884Y007774D03*
X001909Y007764D03*
X001834Y007794D03*
X001724Y007834D03*
X001649Y008119D03*
X001669Y008124D03*
X001689Y008129D03*
X001714Y008134D03*
X001734Y008139D03*
X001754Y008144D03*
X001779Y008149D03*
X001799Y008154D03*
X001819Y008159D03*
X001844Y008164D03*
X001864Y008169D03*
X001884Y008174D03*
X001909Y008179D03*
X001929Y008184D03*
X001949Y008189D03*
X001974Y008194D03*
X001989Y008199D03*
X001994Y008199D03*
X002004Y008204D03*
X002009Y008204D03*
X002014Y008204D03*
X002029Y008209D03*
X002034Y008209D03*
X002039Y008209D03*
X002049Y008214D03*
X002054Y008214D03*
X002159Y008239D03*
X002164Y008239D03*
X002199Y008359D03*
X002204Y008359D03*
X002209Y008359D03*
X002214Y008359D03*
X002224Y008354D03*
X002229Y008354D03*
X002234Y008354D03*
X002239Y008354D03*
X002244Y008354D03*
X002249Y008354D03*
X002254Y008354D03*
X002259Y008354D03*
X002264Y008354D03*
X002269Y008349D03*
X002274Y008349D03*
X002279Y008349D03*
X002284Y008349D03*
X002289Y008349D03*
X002294Y008349D03*
X002299Y008349D03*
X002304Y008349D03*
X002309Y008349D03*
X002314Y008349D03*
X002319Y008344D03*
X002324Y008344D03*
X002329Y008344D03*
X002334Y008344D03*
X002339Y008344D03*
X002344Y008344D03*
X002349Y008344D03*
X002354Y008344D03*
X002359Y008344D03*
X002364Y008344D03*
X002369Y008339D03*
X002374Y008339D03*
X002379Y008339D03*
X002384Y008339D03*
X002389Y008339D03*
X002394Y008339D03*
X002399Y008339D03*
X002404Y008339D03*
X002409Y008339D03*
X002414Y008339D03*
X002419Y008334D03*
X002424Y008334D03*
X002429Y008334D03*
X002434Y008334D03*
X002439Y008334D03*
X002444Y008334D03*
X002449Y008334D03*
X002454Y008334D03*
X002459Y008334D03*
X002464Y008334D03*
X002469Y008329D03*
X002554Y008324D03*
X002164Y008364D03*
X002159Y008364D03*
X002154Y008364D03*
X002114Y008369D03*
X002109Y008369D03*
X002084Y008374D03*
X002079Y008374D03*
X002074Y008374D03*
X002069Y008374D03*
X002064Y008374D03*
X002054Y008379D03*
X002049Y008379D03*
X002044Y008379D03*
X002039Y008379D03*
X002034Y008379D03*
X002029Y008379D03*
X002024Y008379D03*
X002019Y008379D03*
X002009Y008384D03*
X002004Y008384D03*
X001999Y008384D03*
X001994Y008384D03*
X001989Y008384D03*
X001984Y008384D03*
X001809Y008404D03*
X001804Y008404D03*
X001624Y008114D03*
X001604Y008109D03*
X001584Y008104D03*
X001559Y008099D03*
X001539Y008094D03*
X001519Y008089D03*
X001494Y008084D03*
X001474Y008079D03*
X001454Y008074D03*
X001429Y008069D03*
X001409Y008064D03*
X001389Y008059D03*
X001364Y008054D03*
X001344Y008049D03*
X001324Y008044D03*
X001304Y008039D03*
X001299Y008039D03*
X001279Y008034D03*
X001259Y008029D03*
X001149Y008004D03*
X001144Y008004D03*
D70*
X000989Y008134D03*
X000859Y008479D03*
X002519Y009119D03*
X002549Y007399D03*
D71*
X002539Y007726D03*
X002544Y007731D03*
X002549Y007736D03*
X002369Y007006D03*
X002364Y007001D03*
X001844Y006746D03*
X001344Y006751D03*
X001034Y008866D03*
X001039Y008871D03*
X001044Y008876D03*
X001454Y009341D03*
X001459Y009346D03*
X002434Y009266D03*
X002439Y009261D03*
X002444Y009256D03*
D72*
X002219Y008356D03*
X002194Y008361D03*
X002189Y008361D03*
X002184Y008361D03*
X002179Y008361D03*
X002174Y008361D03*
X002169Y008361D03*
X002149Y008366D03*
X002144Y008366D03*
X002139Y008366D03*
X002134Y008366D03*
X002129Y008366D03*
X002124Y008366D03*
X002119Y008366D03*
X002104Y008371D03*
X002099Y008371D03*
X002094Y008371D03*
X002089Y008371D03*
X002059Y008376D03*
X002014Y008381D03*
X001984Y008316D03*
X001994Y008311D03*
X002004Y008306D03*
X002014Y008301D03*
X002024Y008296D03*
X002034Y008291D03*
X002044Y008286D03*
X002054Y008281D03*
X002044Y008211D03*
X002024Y008206D03*
X002019Y008206D03*
X001999Y008201D03*
X001984Y008196D03*
X001979Y008196D03*
X001969Y008191D03*
X001964Y008191D03*
X001959Y008191D03*
X001954Y008191D03*
X001944Y008186D03*
X001939Y008186D03*
X001934Y008186D03*
X001924Y008181D03*
X001919Y008181D03*
X001914Y008181D03*
X001904Y008176D03*
X001899Y008176D03*
X001894Y008176D03*
X001889Y008176D03*
X001879Y008171D03*
X001874Y008171D03*
X001869Y008171D03*
X001859Y008166D03*
X001854Y008166D03*
X001849Y008166D03*
X001839Y008161D03*
X001834Y008161D03*
X001829Y008161D03*
X001824Y008161D03*
X001814Y008156D03*
X001809Y008156D03*
X001804Y008156D03*
X001794Y008151D03*
X001789Y008151D03*
X001784Y008151D03*
X001774Y008146D03*
X001769Y008146D03*
X001764Y008146D03*
X001759Y008146D03*
X001749Y008141D03*
X001744Y008141D03*
X001739Y008141D03*
X001729Y008136D03*
X001724Y008136D03*
X001719Y008136D03*
X001709Y008131D03*
X001704Y008131D03*
X001699Y008131D03*
X001694Y008131D03*
X001684Y008126D03*
X001679Y008126D03*
X001674Y008126D03*
X001664Y008121D03*
X001659Y008121D03*
X001654Y008121D03*
X001644Y008116D03*
X001639Y008116D03*
X001634Y008116D03*
X001629Y008116D03*
X001619Y008111D03*
X001614Y008111D03*
X001609Y008111D03*
X001599Y008106D03*
X001594Y008106D03*
X001589Y008106D03*
X001579Y008101D03*
X001574Y008101D03*
X001569Y008101D03*
X001564Y008101D03*
X001554Y008096D03*
X001549Y008096D03*
X001544Y008096D03*
X001534Y008091D03*
X001529Y008091D03*
X001524Y008091D03*
X001514Y008086D03*
X001509Y008086D03*
X001504Y008086D03*
X001499Y008086D03*
X001489Y008081D03*
X001484Y008081D03*
X001479Y008081D03*
X001469Y008076D03*
X001464Y008076D03*
X001459Y008076D03*
X001449Y008071D03*
X001444Y008071D03*
X001439Y008071D03*
X001434Y008071D03*
X001424Y008066D03*
X001419Y008066D03*
X001414Y008066D03*
X001404Y008061D03*
X001399Y008061D03*
X001394Y008061D03*
X001384Y008056D03*
X001379Y008056D03*
X001374Y008056D03*
X001369Y008056D03*
X001359Y008051D03*
X001354Y008051D03*
X001349Y008051D03*
X001339Y008046D03*
X001334Y008046D03*
X001329Y008046D03*
X001319Y008041D03*
X001314Y008041D03*
X001309Y008041D03*
X001294Y008036D03*
X001289Y008036D03*
X001284Y008036D03*
X001274Y008031D03*
X001269Y008031D03*
X001264Y008031D03*
X001254Y008026D03*
X001249Y008026D03*
X001244Y008026D03*
X001244Y007956D03*
X001254Y007951D03*
X001264Y007946D03*
X001274Y007941D03*
X001284Y007936D03*
X001294Y007931D03*
X001304Y007926D03*
X001314Y007921D03*
X001324Y007916D03*
X001334Y007911D03*
X001344Y007906D03*
X001354Y007901D03*
X001364Y007896D03*
X001374Y007891D03*
X001384Y007886D03*
X001394Y007881D03*
X001404Y007876D03*
X001414Y007871D03*
X001424Y007866D03*
X001434Y007861D03*
X001444Y007856D03*
X001449Y007851D03*
X001454Y007851D03*
X001459Y007846D03*
X001464Y007846D03*
X001469Y007841D03*
X001474Y007841D03*
X001479Y007836D03*
X001484Y007836D03*
X001489Y007831D03*
X001499Y007826D03*
X001509Y007821D03*
X001519Y007816D03*
X001529Y007811D03*
X001539Y007806D03*
X001549Y007801D03*
X001559Y007796D03*
X001569Y007791D03*
X001579Y007786D03*
X001594Y007626D03*
X001624Y007631D03*
X001654Y007636D03*
X001679Y007641D03*
X001709Y007646D03*
X001814Y007666D03*
X001849Y007786D03*
X001854Y007786D03*
X001864Y007781D03*
X001869Y007781D03*
X001874Y007776D03*
X001879Y007776D03*
X001889Y007771D03*
X001894Y007771D03*
X001899Y007766D03*
X001904Y007766D03*
X001914Y007761D03*
X001919Y007761D03*
X001924Y007756D03*
X001929Y007756D03*
X001934Y007756D03*
X001939Y007751D03*
X001944Y007751D03*
X001949Y007746D03*
X001954Y007746D03*
X001959Y007746D03*
X001969Y007741D03*
X001979Y007736D03*
X001984Y007736D03*
X001994Y007731D03*
X002004Y007726D03*
X002009Y007726D03*
X002019Y007721D03*
X002029Y007716D03*
X002039Y007711D03*
X002044Y007711D03*
X002054Y007706D03*
X002064Y007701D03*
X002069Y007701D03*
X002079Y007696D03*
X002089Y007691D03*
X002094Y007691D03*
X002104Y007686D03*
X002114Y007681D03*
X002129Y007676D03*
X002139Y007671D03*
X002164Y007661D03*
X002184Y007581D03*
X002179Y007576D03*
X002174Y007576D03*
X002164Y007571D03*
X002159Y007571D03*
X002154Y007566D03*
X002149Y007566D03*
X002139Y007561D03*
X002134Y007561D03*
X002129Y007556D03*
X002124Y007556D03*
X002114Y007551D03*
X002109Y007551D03*
X002104Y007546D03*
X002099Y007546D03*
X002089Y007541D03*
X002084Y007541D03*
X002079Y007536D03*
X002074Y007536D03*
X002069Y007536D03*
X002064Y007531D03*
X002059Y007531D03*
X002054Y007526D03*
X002049Y007526D03*
X002044Y007526D03*
X002039Y007521D03*
X002034Y007521D03*
X002024Y007516D03*
X002019Y007516D03*
X002014Y007511D03*
X002009Y007511D03*
X001999Y007506D03*
X001994Y007506D03*
X001989Y007501D03*
X001984Y007501D03*
X001974Y007496D03*
X001969Y007496D03*
X001964Y007491D03*
X001959Y007491D03*
X001949Y007486D03*
X001944Y007486D03*
X001939Y007481D03*
X001934Y007481D03*
X001929Y007481D03*
X001924Y007476D03*
X001919Y007476D03*
X001914Y007471D03*
X001909Y007471D03*
X001904Y007471D03*
X001899Y007466D03*
X001894Y007466D03*
X001884Y007461D03*
X001879Y007461D03*
X001874Y007456D03*
X001869Y007456D03*
X001859Y007451D03*
X001854Y007451D03*
X001849Y007446D03*
X001844Y007446D03*
X001834Y007441D03*
X001829Y007441D03*
X001824Y007436D03*
X001819Y007436D03*
X001809Y007431D03*
X001804Y007431D03*
X001799Y007426D03*
X001794Y007426D03*
X001789Y007426D03*
X001784Y007421D03*
X001779Y007421D03*
X001774Y007416D03*
X001769Y007416D03*
X001764Y007416D03*
X001759Y007411D03*
X001754Y007411D03*
X001744Y007406D03*
X001739Y007406D03*
X001734Y007401D03*
X001729Y007401D03*
X001719Y007396D03*
X001714Y007396D03*
X001709Y007391D03*
X001704Y007391D03*
X001694Y007386D03*
X001689Y007386D03*
X001684Y007381D03*
X001679Y007381D03*
X001669Y007376D03*
X001664Y007376D03*
X001659Y007371D03*
X001654Y007371D03*
X001649Y007371D03*
X001644Y007366D03*
X001639Y007366D03*
X001634Y007361D03*
X001629Y007361D03*
X001624Y007361D03*
X001619Y007356D03*
X001614Y007356D03*
X001609Y007351D03*
X001604Y007351D03*
X001599Y007351D03*
X001594Y007346D03*
X001589Y007346D03*
X001579Y007341D03*
X001574Y007341D03*
X001569Y007336D03*
X001564Y007336D03*
X001554Y007331D03*
X001549Y007331D03*
X001544Y007326D03*
X001539Y007326D03*
X001529Y007321D03*
X001524Y007321D03*
X001519Y007316D03*
X001514Y007316D03*
X001504Y007311D03*
X001499Y007311D03*
X001494Y007306D03*
X001489Y007306D03*
X001484Y007306D03*
X001479Y007301D03*
X001474Y007301D03*
X001469Y007296D03*
X001464Y007296D03*
X001459Y007296D03*
X001454Y007291D03*
X001449Y007291D03*
X001439Y007286D03*
X001434Y007286D03*
X001429Y007281D03*
X001424Y007281D03*
X001414Y007276D03*
X001409Y007276D03*
X001404Y007271D03*
X001399Y007271D03*
X001389Y007266D03*
X001384Y007266D03*
X001379Y007261D03*
X001374Y007261D03*
X001364Y007256D03*
X001359Y007256D03*
X001354Y007251D03*
X001349Y007251D03*
X001339Y007246D03*
X001334Y007246D03*
X001329Y007241D03*
X001324Y007241D03*
X001314Y007236D03*
X001309Y007236D03*
X001299Y007231D03*
X001294Y007231D03*
X001289Y007226D03*
X001284Y007226D03*
X001274Y007221D03*
X001269Y007221D03*
X001264Y007216D03*
X001144Y007171D03*
X001139Y007171D03*
X001129Y007166D03*
X001114Y007161D03*
X001104Y007156D03*
X001089Y007151D03*
X001079Y007146D03*
X001064Y007141D03*
X001039Y007131D03*
X001014Y007121D03*
X000999Y007116D03*
X000989Y007111D03*
X000974Y007106D03*
X000964Y007101D03*
X000949Y007096D03*
X000939Y007091D03*
X000924Y007086D03*
X000914Y007081D03*
X000899Y007076D03*
X000889Y007071D03*
X000874Y007066D03*
X000864Y007061D03*
X000859Y007061D03*
X000849Y007056D03*
X000839Y007051D03*
X000834Y007051D03*
X000829Y007051D03*
X000824Y007046D03*
X000819Y007046D03*
X000814Y007041D03*
X001249Y007566D03*
X001279Y007571D03*
X001304Y007576D03*
X001334Y007581D03*
X001364Y007586D03*
X001394Y007591D03*
X001419Y007596D03*
X001449Y007601D03*
X001479Y007606D03*
X001509Y007611D03*
X001539Y007616D03*
X001564Y007621D03*
X001729Y007836D03*
X001809Y007801D03*
X001814Y007801D03*
X001819Y007801D03*
X001824Y007796D03*
X001829Y007796D03*
X001839Y007791D03*
X001844Y007791D03*
X002154Y008236D03*
X001819Y008401D03*
X001814Y008401D03*
X002549Y008321D03*
X002409Y007651D03*
X001159Y008001D03*
X001154Y008001D03*
X001059Y008116D03*
D73*
X002544Y007401D03*
D74*
X002269Y007614D03*
X002264Y007614D03*
X002184Y007654D03*
X002179Y007654D03*
X002174Y007659D03*
X002169Y007659D03*
X002159Y007664D03*
X002154Y007664D03*
X002149Y007669D03*
X002144Y007669D03*
X002134Y007674D03*
X002124Y007679D03*
X002119Y007679D03*
X002109Y007684D03*
X002099Y007689D03*
X002084Y007694D03*
X002074Y007699D03*
X002059Y007704D03*
X002049Y007709D03*
X002034Y007714D03*
X002024Y007719D03*
X002014Y007724D03*
X001999Y007729D03*
X001989Y007734D03*
X001974Y007739D03*
X001964Y007744D03*
X001809Y007669D03*
X001804Y007669D03*
X001709Y007719D03*
X001699Y007724D03*
X001689Y007729D03*
X001684Y007734D03*
X001679Y007734D03*
X001674Y007739D03*
X001669Y007739D03*
X001664Y007744D03*
X001659Y007744D03*
X001654Y007749D03*
X001649Y007749D03*
X001644Y007754D03*
X001639Y007754D03*
X001634Y007759D03*
X001629Y007759D03*
X001624Y007764D03*
X001619Y007764D03*
X001614Y007769D03*
X001609Y007769D03*
X001604Y007774D03*
X001599Y007774D03*
X001594Y007779D03*
X001589Y007779D03*
X001584Y007784D03*
X001574Y007789D03*
X001564Y007794D03*
X001554Y007799D03*
X001544Y007804D03*
X001534Y007809D03*
X001524Y007814D03*
X001514Y007819D03*
X001504Y007824D03*
X001494Y007829D03*
X001439Y007859D03*
X001429Y007864D03*
X001419Y007869D03*
X001409Y007874D03*
X001399Y007879D03*
X001389Y007884D03*
X001379Y007889D03*
X001369Y007894D03*
X001359Y007899D03*
X001349Y007904D03*
X001339Y007909D03*
X001329Y007914D03*
X001319Y007919D03*
X001309Y007924D03*
X001299Y007929D03*
X001289Y007934D03*
X001279Y007939D03*
X001269Y007944D03*
X001259Y007949D03*
X001249Y007954D03*
X001734Y007834D03*
X001849Y007899D03*
X001874Y007914D03*
X001899Y007929D03*
X001909Y007934D03*
X001924Y007944D03*
X001934Y007949D03*
X001944Y007954D03*
X001949Y007959D03*
X001959Y007964D03*
X001969Y007969D03*
X001974Y007974D03*
X001984Y007979D03*
X001994Y007984D03*
X002004Y007989D03*
X002009Y007994D03*
X002014Y007994D03*
X002019Y007999D03*
X002024Y007999D03*
X002029Y008004D03*
X002034Y008009D03*
X002039Y008009D03*
X002044Y008014D03*
X002049Y008014D03*
X002054Y008019D03*
X002059Y008024D03*
X002064Y008024D03*
X002069Y008029D03*
X002074Y008029D03*
X002079Y008034D03*
X002084Y008039D03*
X002089Y008039D03*
X002094Y008044D03*
X002099Y008044D03*
X002104Y008049D03*
X002109Y008054D03*
X002114Y008054D03*
X002119Y008059D03*
X002124Y008059D03*
X002129Y008064D03*
X002134Y008069D03*
X002139Y008069D03*
X002144Y008074D03*
X002149Y008074D03*
X002154Y008079D03*
X002159Y008084D03*
X002164Y008084D03*
X002169Y008089D03*
X002174Y008089D03*
X002179Y008094D03*
X002184Y008099D03*
X002189Y008099D03*
X002194Y008104D03*
X002199Y008104D03*
X002204Y008109D03*
X002209Y008114D03*
X002214Y008114D03*
X002219Y008119D03*
X002224Y008119D03*
X002229Y008124D03*
X002234Y008129D03*
X002239Y008129D03*
X002244Y008134D03*
X002149Y008239D03*
X002144Y008239D03*
X002049Y008284D03*
X002039Y008289D03*
X002029Y008294D03*
X002019Y008299D03*
X002009Y008304D03*
X001999Y008309D03*
X001989Y008314D03*
X001824Y008399D03*
X002544Y008319D03*
X001134Y007169D03*
X001124Y007164D03*
X001119Y007164D03*
X001109Y007159D03*
X001099Y007154D03*
X001094Y007154D03*
X001084Y007149D03*
X001074Y007144D03*
X001069Y007144D03*
X001059Y007139D03*
X001054Y007139D03*
X001049Y007134D03*
X001044Y007134D03*
X001034Y007129D03*
X001029Y007129D03*
X001024Y007124D03*
X001019Y007124D03*
X001009Y007119D03*
X001004Y007119D03*
X000994Y007114D03*
X000984Y007109D03*
X000979Y007109D03*
X000969Y007104D03*
X000959Y007099D03*
X000954Y007099D03*
X000944Y007094D03*
X000934Y007089D03*
X000929Y007089D03*
X000919Y007084D03*
X000909Y007079D03*
X000904Y007079D03*
X000894Y007074D03*
X000884Y007069D03*
X000879Y007069D03*
X000869Y007064D03*
X000854Y007059D03*
X000844Y007054D03*
D75*
X001209Y007036D03*
X002539Y007401D03*
D76*
X002254Y007614D03*
X001799Y007669D03*
X001794Y007669D03*
X002249Y008129D03*
X002539Y008314D03*
X001854Y008389D03*
X001849Y008389D03*
X001174Y007999D03*
X001169Y007999D03*
D77*
X000874Y008481D03*
X001224Y007026D03*
X002534Y007401D03*
D78*
X002534Y007721D03*
X002349Y006986D03*
X002344Y006981D03*
X001829Y006731D03*
X001824Y006726D03*
X001819Y006721D03*
X001369Y006721D03*
X001364Y006726D03*
X001359Y006731D03*
X001019Y008121D03*
X001969Y009341D03*
X001984Y009331D03*
X001944Y009366D03*
X001939Y009371D03*
X001934Y009376D03*
X001929Y009381D03*
X002419Y009281D03*
X002424Y009276D03*
X002429Y009271D03*
X001484Y009376D03*
X001479Y009371D03*
D79*
X001859Y008386D03*
X001864Y008386D03*
X002119Y008241D03*
X002124Y008241D03*
X002129Y008241D03*
X002534Y008311D03*
X001749Y007836D03*
X001784Y007671D03*
X001789Y007671D03*
X001179Y007996D03*
X001054Y008116D03*
D80*
X002529Y007491D03*
D81*
X002529Y008849D03*
D82*
X002524Y008306D03*
X002109Y008241D03*
X001894Y008376D03*
X001889Y008376D03*
X001879Y008381D03*
X001759Y007836D03*
X001774Y007676D03*
X002244Y007616D03*
X001194Y007996D03*
X001189Y007996D03*
X000939Y007531D03*
D83*
X001329Y009096D03*
X002524Y008616D03*
D84*
X002519Y007466D03*
D85*
X002229Y007616D03*
X002374Y008101D03*
X002384Y008116D03*
X002399Y008136D03*
X002409Y008151D03*
X002414Y008156D03*
X002419Y008166D03*
X002459Y008221D03*
X002469Y008236D03*
X002519Y008301D03*
X002094Y008246D03*
X001914Y008371D03*
X001909Y008371D03*
X001204Y007996D03*
X001199Y007996D03*
X000814Y007716D03*
X001149Y007156D03*
X001759Y007676D03*
X001764Y007676D03*
D86*
X001179Y007074D03*
X002439Y007134D03*
X002519Y008604D03*
D87*
X002514Y007459D03*
X000919Y008479D03*
D88*
X001744Y007681D03*
X002219Y007616D03*
X002324Y008031D03*
X002254Y008116D03*
X002424Y008176D03*
X002429Y008181D03*
X002439Y008196D03*
X002514Y008301D03*
X002474Y008561D03*
X002084Y008246D03*
X002079Y008246D03*
X002074Y008246D03*
X001944Y008361D03*
X001939Y008361D03*
D89*
X002514Y009131D03*
X001389Y009226D03*
X000969Y008746D03*
X000994Y008131D03*
D90*
X001044Y008119D03*
X001219Y007994D03*
X001224Y007994D03*
X000934Y007544D03*
X001739Y007679D03*
X001784Y007839D03*
X002209Y007619D03*
X002214Y007619D03*
X002314Y008024D03*
X002069Y008249D03*
X001954Y008359D03*
X001949Y008359D03*
X002509Y008299D03*
D91*
X002284Y008054D03*
X002509Y009144D03*
X000974Y008764D03*
D92*
X002504Y007441D03*
D93*
X002424Y007644D03*
X002199Y007619D03*
X001724Y007684D03*
X001719Y007684D03*
X001239Y007989D03*
X001039Y008119D03*
X001969Y008354D03*
X001979Y008349D03*
X002059Y008249D03*
X002504Y008294D03*
X002479Y008564D03*
D94*
X002499Y007434D03*
X000924Y008479D03*
D95*
X001799Y007841D03*
X001804Y007841D03*
X001714Y007686D03*
X002194Y007616D03*
X002499Y008291D03*
D96*
X002499Y009169D03*
X001294Y009049D03*
X000984Y008784D03*
X000854Y008479D03*
X001169Y007089D03*
X001289Y006834D03*
X001904Y006839D03*
X001909Y006849D03*
X001914Y006854D03*
X001919Y006859D03*
D97*
X002189Y007619D03*
X002494Y008289D03*
D98*
X002264Y008089D03*
X002434Y007634D03*
X002339Y006974D03*
X002334Y006969D03*
X002329Y006964D03*
X001374Y006719D03*
X000849Y008479D03*
X001064Y008899D03*
X001069Y008904D03*
X001074Y008909D03*
X001079Y008914D03*
X001489Y009379D03*
X001494Y009384D03*
X001499Y009389D03*
X001924Y009384D03*
X001989Y009329D03*
X002414Y009289D03*
X002494Y008574D03*
D99*
X002489Y007416D03*
X002484Y007411D03*
D100*
X002429Y007639D03*
X002489Y008284D03*
X002294Y009364D03*
X002284Y009369D03*
X002279Y009369D03*
X002274Y009369D03*
X002264Y009374D03*
X002259Y009374D03*
X002254Y009374D03*
X002244Y009379D03*
X002239Y009379D03*
X002234Y009379D03*
X002229Y009379D03*
X002224Y009379D03*
X002184Y009384D03*
X002179Y009384D03*
X002174Y009384D03*
X002154Y009379D03*
X002149Y009379D03*
X002144Y009379D03*
X002139Y009379D03*
X002134Y009379D03*
X002129Y009374D03*
X002124Y009374D03*
X002119Y009374D03*
X002114Y009374D03*
X002109Y009369D03*
X002104Y009369D03*
X002089Y009364D03*
X001819Y009454D03*
X001804Y009459D03*
X001794Y009464D03*
X001789Y009464D03*
X001784Y009464D03*
X001774Y009469D03*
X001769Y009469D03*
X001764Y009469D03*
X001759Y009469D03*
X001744Y009474D03*
X001739Y009474D03*
X001734Y009474D03*
X001729Y009474D03*
X001724Y009474D03*
X001719Y009474D03*
X001714Y009474D03*
X001709Y009474D03*
X001704Y009474D03*
X001699Y009474D03*
X001694Y009474D03*
X001689Y009474D03*
X001684Y009474D03*
X001679Y009474D03*
X001659Y009469D03*
X001654Y009469D03*
X001649Y009469D03*
X001644Y009469D03*
X001639Y009464D03*
X001634Y009464D03*
X001629Y009464D03*
X001619Y009459D03*
X001614Y009459D03*
X001269Y008999D03*
X001264Y008999D03*
X001259Y008999D03*
X001244Y008994D03*
X001239Y008994D03*
X001234Y008994D03*
X001229Y008994D03*
X001219Y008989D03*
X001214Y008989D03*
X001209Y008989D03*
X001199Y008984D03*
X001184Y008979D03*
X002019Y006894D03*
X002029Y006889D03*
X002034Y006889D03*
X002039Y006889D03*
X002049Y006884D03*
X002054Y006884D03*
X002059Y006884D03*
X002064Y006884D03*
X002074Y006879D03*
X002079Y006879D03*
X002084Y006879D03*
X002089Y006879D03*
X002094Y006879D03*
X002099Y006879D03*
X002104Y006879D03*
X002109Y006879D03*
X002114Y006879D03*
X002119Y006879D03*
X002124Y006879D03*
X002129Y006879D03*
X002134Y006879D03*
X002139Y006879D03*
X002144Y006879D03*
X002149Y006879D03*
X002154Y006879D03*
X002169Y006884D03*
X002174Y006884D03*
X002179Y006884D03*
X002184Y006884D03*
X002189Y006889D03*
X002194Y006889D03*
X002199Y006889D03*
X002209Y006894D03*
X001689Y006639D03*
X001674Y006634D03*
X001669Y006634D03*
X001664Y006634D03*
X001659Y006629D03*
X001654Y006629D03*
X001649Y006629D03*
X001644Y006629D03*
X001634Y006624D03*
X001629Y006624D03*
X001624Y006624D03*
X001619Y006624D03*
X001614Y006624D03*
X001609Y006624D03*
X001604Y006624D03*
X001599Y006624D03*
X001594Y006624D03*
X001589Y006624D03*
X001584Y006624D03*
X001579Y006624D03*
X001574Y006624D03*
X001569Y006624D03*
X001564Y006624D03*
X001559Y006624D03*
X001544Y006629D03*
X001539Y006629D03*
X001534Y006629D03*
X001529Y006629D03*
X001524Y006634D03*
X001519Y006634D03*
X001514Y006634D03*
X001504Y006639D03*
X001499Y006639D03*
D101*
X001474Y006649D03*
X001464Y006654D03*
X001454Y006659D03*
X001444Y006664D03*
X001434Y006669D03*
X001714Y006649D03*
X001724Y006654D03*
X001734Y006659D03*
X001744Y006664D03*
X001754Y006669D03*
X001984Y006909D03*
X001994Y006904D03*
X002249Y006909D03*
X002259Y006914D03*
X002264Y006919D03*
X002274Y006924D03*
X001029Y008119D03*
X001134Y008954D03*
X001139Y008959D03*
X001144Y008959D03*
X001149Y008964D03*
X001154Y008964D03*
X001544Y009424D03*
X001554Y009429D03*
X001559Y009434D03*
X001564Y009434D03*
X001569Y009439D03*
X001579Y009444D03*
X001849Y009439D03*
X001854Y009439D03*
X001859Y009434D03*
X001869Y009429D03*
X002009Y009324D03*
X002029Y009334D03*
X002039Y009339D03*
X002044Y009344D03*
X002054Y009349D03*
X002064Y009354D03*
X002319Y009354D03*
X002329Y009349D03*
X002339Y009344D03*
X002344Y009339D03*
X002349Y009339D03*
X002354Y009334D03*
X002489Y008569D03*
D102*
X002484Y008281D03*
X002309Y008031D03*
X002254Y006911D03*
X002244Y006906D03*
X002239Y006906D03*
X002234Y006901D03*
X002229Y006901D03*
X002224Y006896D03*
X002219Y006896D03*
X002214Y006896D03*
X002204Y006891D03*
X002044Y006886D03*
X002024Y006891D03*
X002014Y006896D03*
X002009Y006896D03*
X002004Y006901D03*
X001999Y006901D03*
X001989Y006906D03*
X001979Y006911D03*
X001739Y006661D03*
X001729Y006656D03*
X001719Y006651D03*
X001709Y006646D03*
X001704Y006646D03*
X001699Y006641D03*
X001694Y006641D03*
X001684Y006636D03*
X001679Y006636D03*
X001509Y006636D03*
X001494Y006641D03*
X001489Y006641D03*
X001484Y006646D03*
X001479Y006646D03*
X001469Y006651D03*
X001459Y006656D03*
X001449Y006661D03*
X001159Y008966D03*
X001164Y008971D03*
X001169Y008971D03*
X001174Y008976D03*
X001179Y008976D03*
X001189Y008981D03*
X001194Y008981D03*
X001204Y008986D03*
X001574Y009441D03*
X001584Y009446D03*
X001589Y009446D03*
X001594Y009451D03*
X001599Y009451D03*
X001604Y009456D03*
X001609Y009456D03*
X001624Y009461D03*
X001779Y009466D03*
X001799Y009461D03*
X001809Y009456D03*
X001814Y009456D03*
X001824Y009451D03*
X001829Y009451D03*
X001834Y009446D03*
X001839Y009446D03*
X001844Y009441D03*
X002049Y009346D03*
X002059Y009351D03*
X002069Y009356D03*
X002074Y009356D03*
X002079Y009361D03*
X002084Y009361D03*
X002094Y009366D03*
X002099Y009366D03*
X002269Y009371D03*
X002289Y009366D03*
X002299Y009361D03*
X002304Y009361D03*
X002309Y009356D03*
X002314Y009356D03*
X002324Y009351D03*
X002334Y009346D03*
D103*
X002249Y009376D03*
X002219Y009381D03*
X002214Y009381D03*
X002209Y009381D03*
X002204Y009381D03*
X002199Y009381D03*
X002194Y009381D03*
X002189Y009381D03*
X002169Y009381D03*
X002164Y009381D03*
X002159Y009381D03*
X001754Y009471D03*
X001749Y009471D03*
X001674Y009471D03*
X001669Y009471D03*
X001664Y009471D03*
X001254Y008996D03*
X001249Y008996D03*
X001224Y008991D03*
X001034Y008121D03*
X000929Y007556D03*
X001549Y006626D03*
X001554Y006626D03*
X001639Y006626D03*
X002069Y006881D03*
X002159Y006881D03*
X002164Y006881D03*
X002259Y008101D03*
X002484Y008566D03*
D104*
X002479Y007404D03*
X000929Y008479D03*
D105*
X001009Y008126D03*
X001164Y007101D03*
X001309Y006796D03*
X001879Y006796D03*
X001944Y006886D03*
X002404Y007056D03*
X002444Y007616D03*
X002299Y008051D03*
X002479Y009206D03*
D106*
X002389Y009309D03*
X002384Y009314D03*
X002379Y009319D03*
X001909Y009399D03*
X001904Y009404D03*
X001899Y009409D03*
X001894Y009409D03*
X001889Y009414D03*
X001884Y009419D03*
X001529Y009414D03*
X001524Y009409D03*
X001519Y009404D03*
X001514Y009404D03*
X001104Y008934D03*
X001099Y008929D03*
X002474Y008274D03*
X002309Y006949D03*
X002304Y006944D03*
X002299Y006939D03*
X001794Y006699D03*
X001789Y006694D03*
X001784Y006689D03*
X001774Y006684D03*
X001414Y006684D03*
X001404Y006689D03*
X001399Y006694D03*
X001394Y006699D03*
X001154Y007124D03*
D107*
X001769Y007674D03*
X001769Y007839D03*
X001764Y007839D03*
X002099Y008244D03*
X002104Y008244D03*
X001904Y008374D03*
X001899Y008374D03*
X002469Y008559D03*
X002239Y007619D03*
X002234Y007619D03*
X001049Y008119D03*
D108*
X001164Y008001D03*
X000944Y007521D03*
X001259Y007211D03*
X001694Y007726D03*
X001704Y007721D03*
X001739Y007836D03*
X001744Y007836D03*
X001809Y007876D03*
X001814Y007876D03*
X001819Y007881D03*
X001824Y007886D03*
X001829Y007886D03*
X001834Y007891D03*
X001839Y007891D03*
X001844Y007896D03*
X001854Y007901D03*
X001859Y007906D03*
X001864Y007906D03*
X001869Y007911D03*
X001879Y007916D03*
X001884Y007921D03*
X001889Y007921D03*
X001894Y007926D03*
X001904Y007931D03*
X001914Y007936D03*
X001919Y007941D03*
X001929Y007946D03*
X001939Y007951D03*
X001954Y007961D03*
X001964Y007966D03*
X001979Y007976D03*
X001989Y007981D03*
X001999Y007986D03*
X002134Y008241D03*
X002139Y008241D03*
X001844Y008391D03*
X001839Y008391D03*
X001834Y008396D03*
X001829Y008396D03*
X002464Y008561D03*
X002259Y007616D03*
D109*
X002459Y007379D03*
D110*
X002454Y007371D03*
D111*
X002449Y007174D03*
X001194Y007054D03*
D112*
X002444Y007146D03*
X000964Y008731D03*
X001314Y009076D03*
D113*
X001094Y008926D03*
X001089Y008921D03*
X001084Y008916D03*
X001504Y009391D03*
X001509Y009396D03*
X001914Y009396D03*
X001919Y009391D03*
X001994Y009326D03*
X002394Y009306D03*
X002399Y009301D03*
X002404Y009296D03*
X002409Y009291D03*
X001024Y008121D03*
X001969Y006906D03*
X001814Y006716D03*
X001809Y006711D03*
X001804Y006706D03*
X001799Y006701D03*
X001389Y006701D03*
X001384Y006706D03*
X001379Y006711D03*
X002314Y006951D03*
X002319Y006956D03*
X002324Y006961D03*
D114*
X002344Y007611D03*
X001899Y007651D03*
X001894Y007651D03*
X002244Y008231D03*
X001669Y008446D03*
X001664Y008446D03*
X001064Y008116D03*
D115*
X001074Y008014D03*
X001079Y008014D03*
X001669Y007829D03*
X001674Y007829D03*
X001889Y007654D03*
X002339Y007614D03*
X002239Y008229D03*
X002234Y008229D03*
X001679Y008444D03*
X001674Y008444D03*
D116*
X001684Y008441D03*
X001689Y008441D03*
X002224Y008231D03*
X002229Y008231D03*
X002334Y007611D03*
X001884Y007651D03*
X001679Y007831D03*
X001089Y008011D03*
X001084Y008011D03*
X000844Y008476D03*
D117*
X001694Y008439D03*
X001699Y008439D03*
X001704Y008434D03*
X001709Y008434D03*
X001684Y007829D03*
X001874Y007654D03*
X001879Y007654D03*
X002324Y007614D03*
X002329Y007614D03*
D118*
X002314Y007614D03*
X002309Y007614D03*
X001859Y007659D03*
X002199Y008234D03*
X002204Y008234D03*
X002209Y008234D03*
X001729Y008429D03*
X001724Y008429D03*
X001109Y008009D03*
X001104Y008009D03*
D119*
X001229Y007991D03*
X001234Y007991D03*
X001789Y007841D03*
X001794Y007841D03*
X001734Y007681D03*
X001729Y007681D03*
X002204Y007616D03*
X002064Y008246D03*
X001974Y008351D03*
X001964Y008356D03*
X001959Y008356D03*
D120*
X001769Y008416D03*
X001764Y008416D03*
X002179Y008236D03*
X002184Y008236D03*
X001709Y007831D03*
X001834Y007661D03*
X001839Y007661D03*
X001129Y008006D03*
X001124Y008006D03*
D121*
X001354Y009129D03*
X001364Y009144D03*
X001369Y009154D03*
D122*
X001359Y009136D03*
X001204Y007041D03*
D123*
X000979Y008139D03*
X000864Y008479D03*
X001334Y009104D03*
D124*
X001324Y009089D03*
X000959Y008714D03*
X001189Y007059D03*
D125*
X001254Y007001D03*
X000849Y007711D03*
D126*
X001249Y007004D03*
D127*
X001239Y007014D03*
X000879Y008479D03*
D128*
X001234Y007016D03*
D129*
X001184Y007064D03*
D130*
X000974Y008144D03*
D131*
X000969Y008146D03*
D132*
X000964Y008154D03*
X000839Y007694D03*
D133*
X000959Y008164D03*
X000884Y008479D03*
D134*
X000954Y008386D03*
D135*
X000949Y008376D03*
D136*
X000944Y008364D03*
D137*
X000939Y008349D03*
D138*
X000934Y008331D03*
D139*
X000919Y007791D03*
X000914Y007786D03*
D140*
X000914Y008479D03*
D141*
X000909Y007781D03*
D142*
X000909Y008479D03*
D143*
X000904Y008479D03*
X000899Y007774D03*
D144*
X000889Y007764D03*
X000899Y008479D03*
D145*
X000894Y008479D03*
D146*
X000889Y008481D03*
D147*
X000884Y007756D03*
D148*
X000869Y007741D03*
D149*
X000869Y008481D03*
D150*
X000864Y007734D03*
D151*
X000854Y007719D03*
D152*
X000834Y007684D03*
D153*
X003250Y001290D02*
X003390Y001150D01*
X003390Y000870D01*
X003390Y001080D02*
X003110Y001080D01*
X003110Y001150D02*
X003250Y001290D01*
X003110Y001150D02*
X003110Y000870D01*
X004110Y000940D02*
X004180Y000870D01*
X004320Y000870D01*
X004390Y000940D01*
X004390Y001220D02*
X004320Y001290D01*
X004180Y001290D01*
X004110Y001220D01*
X004110Y000940D01*
X005110Y000870D02*
X005320Y000870D01*
X005390Y000940D01*
X005390Y001010D01*
X005320Y001080D01*
X005110Y001080D01*
X005320Y001080D02*
X005390Y001150D01*
X005390Y001220D01*
X005320Y001290D01*
X005110Y001290D01*
X005110Y000870D01*
X005899Y000870D02*
X005899Y001290D01*
X006109Y001290D01*
X006179Y001220D01*
X006179Y001080D01*
X006109Y001010D01*
X005899Y001010D01*
X006360Y000870D02*
X006640Y000870D01*
X006500Y000870D02*
X006500Y001290D01*
X006360Y001150D01*
X006899Y001010D02*
X007109Y001010D01*
X007179Y001080D01*
X007179Y001220D01*
X007109Y001290D01*
X006899Y001290D01*
X006899Y000870D01*
X007360Y000870D02*
X007640Y001150D01*
X007640Y001220D01*
X007570Y001290D01*
X007430Y001290D01*
X007360Y001220D01*
X007360Y000870D02*
X007640Y000870D01*
X008820Y006620D02*
X009240Y006620D01*
X009240Y006900D01*
X009240Y007080D02*
X008960Y007080D01*
X008960Y007291D01*
X009030Y007361D01*
X009240Y007361D01*
X009170Y007541D02*
X009240Y007611D01*
X009240Y007821D01*
X009170Y008001D02*
X009240Y008071D01*
X009240Y008211D01*
X009170Y008281D01*
X009030Y008281D01*
X008960Y008211D01*
X008960Y008071D01*
X009030Y008001D01*
X009170Y008001D01*
X008960Y007821D02*
X008960Y007611D01*
X009030Y007541D01*
X009170Y007541D01*
X008490Y007525D02*
X008420Y007455D01*
X008280Y007455D01*
X008210Y007525D01*
X008210Y007666D01*
X008280Y007736D01*
X008420Y007736D01*
X008490Y007666D01*
X008490Y007525D01*
X008490Y007275D02*
X008350Y007135D01*
X008350Y007205D02*
X008350Y006995D01*
X008490Y006995D02*
X008070Y006995D01*
X008070Y007205D01*
X008140Y007275D01*
X008280Y007275D01*
X008350Y007205D01*
X008820Y006900D02*
X008820Y006620D01*
X009030Y006620D02*
X009030Y006760D01*
X008420Y007986D02*
X008140Y007986D01*
X008210Y007916D02*
X008210Y008056D01*
X008420Y007986D02*
X008490Y008056D01*
X008420Y008223D02*
X008350Y008293D01*
X008350Y008503D01*
X008280Y008503D02*
X008490Y008503D01*
X008490Y008293D01*
X008420Y008223D01*
X008210Y008293D02*
X008210Y008433D01*
X008280Y008503D01*
X008350Y008683D02*
X008210Y008823D01*
X008210Y008893D01*
X008210Y008683D02*
X008490Y008683D01*
X008820Y008742D02*
X009240Y008742D01*
X009240Y008532D01*
X009170Y008462D01*
X009030Y008462D01*
X008960Y008532D01*
X008960Y008742D01*
X009030Y008922D02*
X008960Y008992D01*
X008960Y009132D01*
X009030Y009202D01*
X009100Y009202D01*
X009100Y008922D01*
X009170Y008922D02*
X009030Y008922D01*
X009170Y008922D02*
X009240Y008992D01*
X009240Y009132D01*
X009240Y009382D02*
X008960Y009382D01*
X009100Y009382D02*
X008960Y009522D01*
X008960Y009593D01*
X008630Y009277D02*
X008630Y009207D01*
X008630Y009277D02*
X008560Y009347D01*
X008210Y009347D01*
X008210Y009067D02*
X008420Y009067D01*
X008490Y009137D01*
X008490Y009347D01*
D154*
X007721Y008123D02*
X007520Y008123D01*
X007721Y008123D02*
X007721Y006867D01*
X006697Y008052D02*
X006699Y008080D01*
X006705Y008107D01*
X006714Y008134D01*
X006728Y008159D01*
X006744Y008181D01*
X006764Y008201D01*
X006786Y008219D01*
X006810Y008233D01*
X006836Y008243D01*
X006863Y008250D01*
X006891Y008253D01*
X006919Y008252D01*
X006947Y008247D01*
X006973Y008238D01*
X006998Y008226D01*
X007022Y008210D01*
X007043Y008192D01*
X007061Y008170D01*
X007075Y008146D01*
X007087Y008121D01*
X007095Y008094D01*
X007099Y008066D01*
X007099Y008038D01*
X007095Y008010D01*
X007087Y007983D01*
X007075Y007958D01*
X007061Y007934D01*
X007043Y007912D01*
X007022Y007894D01*
X006999Y007878D01*
X006973Y007866D01*
X006947Y007857D01*
X006919Y007852D01*
X006891Y007851D01*
X006863Y007854D01*
X006836Y007861D01*
X006810Y007871D01*
X006786Y007885D01*
X006764Y007903D01*
X006744Y007923D01*
X006728Y007945D01*
X006714Y007970D01*
X006705Y007997D01*
X006699Y008024D01*
X006697Y008052D01*
X006965Y008678D02*
X007011Y008676D01*
X007056Y008670D01*
X007101Y008661D01*
X007145Y008648D01*
X007188Y008631D01*
X007229Y008611D01*
X007269Y008588D01*
X007306Y008561D01*
X007341Y008531D01*
X007373Y008499D01*
X007403Y008464D01*
X007430Y008427D01*
X007453Y008387D01*
X007473Y008346D01*
X007490Y008303D01*
X007503Y008259D01*
X007512Y008214D01*
X007518Y008169D01*
X007520Y008123D01*
X006303Y006671D02*
X006179Y006470D01*
X005658Y006470D01*
X005658Y005175D01*
X005457Y004912D01*
X005457Y006671D01*
X005658Y006470D01*
X005457Y006671D02*
X006303Y006671D01*
X005457Y006671D02*
X005103Y006671D01*
X004902Y006470D01*
X004902Y005175D01*
X005103Y004912D01*
X005105Y004912D02*
X005103Y006671D01*
X004257Y006671D01*
X004381Y006470D01*
X004902Y006470D01*
X004380Y006470D02*
X004358Y006414D01*
X004340Y006358D01*
X004324Y006300D01*
X004313Y006241D01*
X004304Y006182D01*
X004300Y006123D01*
X004299Y006063D01*
X004302Y006003D01*
X004308Y005944D01*
X004318Y005885D01*
X004332Y005827D01*
X004349Y005770D01*
X004370Y005713D01*
X004394Y005659D01*
X004421Y005606D01*
X004452Y005554D01*
X004485Y005505D01*
X004522Y005458D01*
X004561Y005413D01*
X004603Y005370D01*
X004648Y005330D01*
X004695Y005293D01*
X004744Y005259D01*
X004795Y005228D01*
X004847Y005200D01*
X004902Y005176D01*
X004099Y006080D02*
X004101Y006149D01*
X004107Y006217D01*
X004117Y006285D01*
X004131Y006352D01*
X004149Y006419D01*
X004170Y006484D01*
X004196Y006548D01*
X004225Y006610D01*
X004257Y006670D01*
X004293Y006729D01*
X004333Y006785D01*
X004375Y006839D01*
X004421Y006890D01*
X004470Y006939D01*
X004521Y006985D01*
X004575Y007027D01*
X004631Y007067D01*
X004689Y007103D01*
X004750Y007135D01*
X004812Y007164D01*
X004876Y007190D01*
X004941Y007211D01*
X005008Y007229D01*
X005075Y007243D01*
X005143Y007253D01*
X005211Y007259D01*
X005280Y007261D01*
X005349Y007259D01*
X005417Y007253D01*
X005485Y007243D01*
X005552Y007229D01*
X005619Y007211D01*
X005684Y007190D01*
X005748Y007164D01*
X005810Y007135D01*
X005870Y007103D01*
X005929Y007067D01*
X005985Y007027D01*
X006039Y006985D01*
X006090Y006939D01*
X006139Y006890D01*
X006185Y006839D01*
X006227Y006785D01*
X006267Y006729D01*
X006303Y006670D01*
X006335Y006610D01*
X006364Y006548D01*
X006390Y006484D01*
X006411Y006419D01*
X006429Y006352D01*
X006443Y006285D01*
X006453Y006217D01*
X006459Y006149D01*
X006461Y006080D01*
X006459Y006011D01*
X006453Y005943D01*
X006443Y005875D01*
X006429Y005808D01*
X006411Y005741D01*
X006390Y005676D01*
X006364Y005612D01*
X006335Y005550D01*
X006303Y005489D01*
X006267Y005431D01*
X006227Y005375D01*
X006185Y005321D01*
X006139Y005270D01*
X006090Y005221D01*
X006039Y005175D01*
X005985Y005133D01*
X005929Y005093D01*
X005871Y005057D01*
X005810Y005025D01*
X005748Y004996D01*
X005684Y004970D01*
X005619Y004949D01*
X005552Y004931D01*
X005485Y004917D01*
X005417Y004907D01*
X005349Y004901D01*
X005280Y004899D01*
X005211Y004901D01*
X005143Y004907D01*
X005075Y004917D01*
X005008Y004931D01*
X004941Y004949D01*
X004876Y004970D01*
X004812Y004996D01*
X004750Y005025D01*
X004689Y005057D01*
X004631Y005093D01*
X004575Y005133D01*
X004521Y005175D01*
X004470Y005221D01*
X004421Y005270D01*
X004375Y005321D01*
X004333Y005375D01*
X004293Y005431D01*
X004257Y005489D01*
X004225Y005550D01*
X004196Y005612D01*
X004170Y005676D01*
X004149Y005741D01*
X004131Y005808D01*
X004117Y005875D01*
X004107Y005943D01*
X004101Y006011D01*
X004099Y006080D01*
X003941Y006080D02*
X003943Y006153D01*
X003949Y006226D01*
X003959Y006298D01*
X003973Y006370D01*
X003991Y006441D01*
X004012Y006511D01*
X004038Y006580D01*
X004067Y006647D01*
X004100Y006712D01*
X004136Y006776D01*
X004176Y006837D01*
X004219Y006896D01*
X004265Y006953D01*
X004314Y007007D01*
X004366Y007059D01*
X004421Y007107D01*
X004478Y007152D01*
X004538Y007195D01*
X004600Y007233D01*
X004664Y007269D01*
X004730Y007301D01*
X004797Y007329D01*
X004866Y007353D01*
X004936Y007374D01*
X005008Y007391D01*
X005080Y007404D01*
X005152Y007413D01*
X005225Y007418D01*
X005298Y007419D01*
X005371Y007416D01*
X005444Y007409D01*
X005517Y007398D01*
X005588Y007383D01*
X005659Y007364D01*
X005728Y007342D01*
X005797Y007315D01*
X005863Y007285D01*
X005928Y007252D01*
X005991Y007214D01*
X006052Y007174D01*
X006111Y007130D01*
X006167Y007083D01*
X006220Y007033D01*
X006271Y006980D01*
X006319Y006925D01*
X006363Y006867D01*
X006405Y006807D01*
X006443Y006744D01*
X006477Y006680D01*
X006508Y006613D01*
X006535Y006546D01*
X006559Y006476D01*
X006579Y006406D01*
X006595Y006334D01*
X006607Y006262D01*
X006615Y006190D01*
X006619Y006117D01*
X006619Y006043D01*
X006615Y005970D01*
X006607Y005898D01*
X006595Y005826D01*
X006579Y005754D01*
X006559Y005684D01*
X006535Y005614D01*
X006508Y005547D01*
X006477Y005480D01*
X006443Y005416D01*
X006405Y005353D01*
X006363Y005293D01*
X006319Y005235D01*
X006271Y005180D01*
X006220Y005127D01*
X006167Y005077D01*
X006111Y005030D01*
X006052Y004986D01*
X005991Y004946D01*
X005928Y004908D01*
X005863Y004875D01*
X005797Y004845D01*
X005728Y004818D01*
X005659Y004796D01*
X005588Y004777D01*
X005517Y004762D01*
X005444Y004751D01*
X005371Y004744D01*
X005298Y004741D01*
X005225Y004742D01*
X005152Y004747D01*
X005080Y004756D01*
X005008Y004769D01*
X004936Y004786D01*
X004866Y004807D01*
X004797Y004831D01*
X004730Y004859D01*
X004664Y004891D01*
X004600Y004927D01*
X004538Y004965D01*
X004478Y005008D01*
X004421Y005053D01*
X004366Y005101D01*
X004314Y005153D01*
X004265Y005207D01*
X004219Y005264D01*
X004176Y005323D01*
X004136Y005384D01*
X004100Y005448D01*
X004067Y005513D01*
X004038Y005580D01*
X004012Y005649D01*
X003991Y005719D01*
X003973Y005790D01*
X003959Y005862D01*
X003949Y005934D01*
X003943Y006007D01*
X003941Y006080D01*
X002839Y005293D02*
X002839Y004037D01*
X003040Y004037D01*
X003042Y003991D01*
X003048Y003946D01*
X003057Y003901D01*
X003070Y003857D01*
X003087Y003814D01*
X003107Y003773D01*
X003130Y003733D01*
X003157Y003696D01*
X003187Y003661D01*
X003219Y003629D01*
X003254Y003599D01*
X003291Y003572D01*
X003331Y003549D01*
X003372Y003529D01*
X003415Y003512D01*
X003459Y003499D01*
X003504Y003490D01*
X003549Y003484D01*
X003595Y003482D01*
X003461Y004108D02*
X003463Y004136D01*
X003469Y004163D01*
X003478Y004190D01*
X003492Y004215D01*
X003508Y004237D01*
X003528Y004257D01*
X003550Y004275D01*
X003574Y004289D01*
X003600Y004299D01*
X003627Y004306D01*
X003655Y004309D01*
X003683Y004308D01*
X003711Y004303D01*
X003737Y004294D01*
X003762Y004282D01*
X003786Y004266D01*
X003807Y004248D01*
X003825Y004226D01*
X003839Y004202D01*
X003851Y004177D01*
X003859Y004150D01*
X003863Y004122D01*
X003863Y004094D01*
X003859Y004066D01*
X003851Y004039D01*
X003839Y004014D01*
X003825Y003990D01*
X003807Y003968D01*
X003786Y003950D01*
X003763Y003934D01*
X003737Y003922D01*
X003711Y003913D01*
X003683Y003908D01*
X003655Y003907D01*
X003627Y003910D01*
X003600Y003917D01*
X003574Y003927D01*
X003550Y003941D01*
X003528Y003959D01*
X003508Y003979D01*
X003492Y004001D01*
X003478Y004026D01*
X003469Y004053D01*
X003463Y004080D01*
X003461Y004108D01*
X002780Y002455D02*
X006780Y002455D01*
X006780Y001455D01*
X002780Y001455D01*
X002780Y002455D01*
X005658Y005176D02*
X005713Y005200D01*
X005765Y005228D01*
X005816Y005259D01*
X005865Y005293D01*
X005912Y005330D01*
X005957Y005370D01*
X005999Y005413D01*
X006038Y005458D01*
X006075Y005505D01*
X006108Y005554D01*
X006139Y005606D01*
X006166Y005659D01*
X006190Y005713D01*
X006211Y005770D01*
X006228Y005827D01*
X006242Y005885D01*
X006252Y005944D01*
X006258Y006003D01*
X006261Y006063D01*
X006260Y006123D01*
X006256Y006182D01*
X006247Y006241D01*
X006236Y006300D01*
X006220Y006358D01*
X006202Y006414D01*
X006180Y006470D01*
X007721Y005293D02*
X007721Y004037D01*
X007520Y004037D01*
X007518Y003991D01*
X007512Y003946D01*
X007503Y003901D01*
X007490Y003857D01*
X007473Y003814D01*
X007453Y003773D01*
X007430Y003733D01*
X007403Y003696D01*
X007373Y003661D01*
X007341Y003629D01*
X007306Y003599D01*
X007269Y003572D01*
X007229Y003549D01*
X007188Y003529D01*
X007145Y003512D01*
X007101Y003499D01*
X007056Y003490D01*
X007011Y003484D01*
X006965Y003482D01*
X006697Y004108D02*
X006699Y004136D01*
X006705Y004163D01*
X006714Y004190D01*
X006728Y004215D01*
X006744Y004237D01*
X006764Y004257D01*
X006786Y004275D01*
X006810Y004289D01*
X006836Y004299D01*
X006863Y004306D01*
X006891Y004309D01*
X006919Y004308D01*
X006947Y004303D01*
X006973Y004294D01*
X006998Y004282D01*
X007022Y004266D01*
X007043Y004248D01*
X007061Y004226D01*
X007075Y004202D01*
X007087Y004177D01*
X007095Y004150D01*
X007099Y004122D01*
X007099Y004094D01*
X007095Y004066D01*
X007087Y004039D01*
X007075Y004014D01*
X007061Y003990D01*
X007043Y003968D01*
X007022Y003950D01*
X006999Y003934D01*
X006973Y003922D01*
X006947Y003913D01*
X006919Y003908D01*
X006891Y003907D01*
X006863Y003910D01*
X006836Y003917D01*
X006810Y003927D01*
X006786Y003941D01*
X006764Y003959D01*
X006744Y003979D01*
X006728Y004001D01*
X006714Y004026D01*
X006705Y004053D01*
X006699Y004080D01*
X006697Y004108D01*
X006780Y002455D02*
X007780Y002455D01*
X007780Y001455D01*
X006780Y001455D01*
X002839Y006867D02*
X002839Y008123D01*
X003040Y008123D01*
X003042Y008169D01*
X003048Y008214D01*
X003057Y008259D01*
X003070Y008303D01*
X003087Y008346D01*
X003107Y008387D01*
X003130Y008427D01*
X003157Y008464D01*
X003187Y008499D01*
X003219Y008531D01*
X003254Y008561D01*
X003291Y008588D01*
X003331Y008611D01*
X003372Y008631D01*
X003415Y008648D01*
X003459Y008661D01*
X003504Y008670D01*
X003549Y008676D01*
X003595Y008678D01*
X003461Y008052D02*
X003463Y008080D01*
X003469Y008107D01*
X003478Y008134D01*
X003492Y008159D01*
X003508Y008181D01*
X003528Y008201D01*
X003550Y008219D01*
X003574Y008233D01*
X003600Y008243D01*
X003627Y008250D01*
X003655Y008253D01*
X003683Y008252D01*
X003711Y008247D01*
X003737Y008238D01*
X003762Y008226D01*
X003786Y008210D01*
X003807Y008192D01*
X003825Y008170D01*
X003839Y008146D01*
X003851Y008121D01*
X003859Y008094D01*
X003863Y008066D01*
X003863Y008038D01*
X003859Y008010D01*
X003851Y007983D01*
X003839Y007958D01*
X003825Y007934D01*
X003807Y007912D01*
X003786Y007894D01*
X003763Y007878D01*
X003737Y007866D01*
X003711Y007857D01*
X003683Y007852D01*
X003655Y007851D01*
X003627Y007854D01*
X003600Y007861D01*
X003574Y007871D01*
X003550Y007885D01*
X003528Y007903D01*
X003508Y007923D01*
X003492Y007945D01*
X003478Y007970D01*
X003469Y007997D01*
X003463Y008024D01*
X003461Y008052D01*
X004776Y008678D02*
X005784Y008678D01*
M02*
